{
  "header": {
    "keySignatures": [],
    "meta": [],
    "name": "[2018_0618] CRO_Craft",
    "ppq": 480,
    "tempos": [
      {
        "bpm": 108.000108000108,
        "ticks": 0
      }
    ],
    "timeSignatures": [
      {
        "ticks": 0,
        "timeSignature": [
          4,
          4
        ],
        "measures": 0
      }
    ]
  },
  "tracks": [
    {
      "channel": 0,
      "controlChanges": {
        "1": [
          {
            "number": 1,
            "ticks": 0,
            "time": 0,
            "value": 0
          }
        ],
        "7": [
          {
            "number": 7,
            "ticks": 0,
            "time": 0,
            "value": 1
          }
        ],
        "10": [
          {
            "number": 10,
            "ticks": 0,
            "time": 0,
            "value": 0.5433070866141733
          }
        ],
        "11": [
          {
            "number": 11,
            "ticks": 0,
            "time": 0,
            "value": 1
          }
        ]
      },
      "pitchBends": [],
      "instrument": {
        "family": "piano",
        "number": 0,
        "name": "acoustic grand piano"
      },
      "name": "Pizz.",
      "notes": [],
      "endOfTrackTicks": 30720
    },
    {
      "channel": 0,
      "controlChanges": {},
      "pitchBends": [],
      "instrument": {
        "family": "strings",
        "number": 45,
        "name": "pizzicato strings"
      },
      "name": "",
      "notes": [
        {
          "duration": 0.185185,
          "durationTicks": 160,
          "midi": 48,
          "name": "C3",
          "ticks": 0,
          "time": 0,
          "velocity": 1
        },
        {
          "duration": 0.18518500000000016,
          "durationTicks": 160,
          "midi": 50,
          "name": "D3",
          "ticks": 960,
          "time": 1.11111,
          "velocity": 1
        },
        {
          "duration": 0.1851849999999997,
          "durationTicks": 160,
          "midi": 48,
          "name": "C3",
          "ticks": 1920,
          "time": 2.22222,
          "velocity": 1
        },
        {
          "duration": 0.1851849999999997,
          "durationTicks": 160,
          "midi": 50,
          "name": "D3",
          "ticks": 2880,
          "time": 3.33333,
          "velocity": 1
        },
        {
          "duration": 0.1851850000000006,
          "durationTicks": 160,
          "midi": 48,
          "name": "C3",
          "ticks": 3840,
          "time": 4.44444,
          "velocity": 1
        },
        {
          "duration": 0.1851850000000006,
          "durationTicks": 160,
          "midi": 50,
          "name": "D3",
          "ticks": 4800,
          "time": 5.55555,
          "velocity": 1
        },
        {
          "duration": 0.1851850000000006,
          "durationTicks": 160,
          "midi": 43,
          "name": "G2",
          "ticks": 5760,
          "time": 6.66666,
          "velocity": 1
        },
        {
          "duration": 0.1851850000000006,
          "durationTicks": 160,
          "midi": 45,
          "name": "A2",
          "ticks": 6240,
          "time": 7.222215,
          "velocity": 1
        },
        {
          "duration": 0.1851850000000006,
          "durationTicks": 160,
          "midi": 46,
          "name": "A#2",
          "ticks": 6720,
          "time": 7.77777,
          "velocity": 1
        },
        {
          "duration": 0.1851850000000006,
          "durationTicks": 160,
          "midi": 47,
          "name": "B2",
          "ticks": 7200,
          "time": 8.333325,
          "velocity": 1
        },
        {
          "duration": 0.18518499999999882,
          "durationTicks": 160,
          "midi": 48,
          "name": "C3",
          "ticks": 7680,
          "time": 8.88888,
          "velocity": 1
        },
        {
          "duration": 0.18518499999999882,
          "durationTicks": 160,
          "midi": 50,
          "name": "D3",
          "ticks": 8640,
          "time": 9.99999,
          "velocity": 1
        },
        {
          "duration": 0.18518499999999882,
          "durationTicks": 160,
          "midi": 48,
          "name": "C3",
          "ticks": 9600,
          "time": 11.1111,
          "velocity": 1
        },
        {
          "duration": 0.18518499999999882,
          "durationTicks": 160,
          "midi": 50,
          "name": "D3",
          "ticks": 10560,
          "time": 12.22221,
          "velocity": 1
        },
        {
          "duration": 0.18518499999999882,
          "durationTicks": 160,
          "midi": 48,
          "name": "C3",
          "ticks": 11520,
          "time": 13.33332,
          "velocity": 1
        },
        {
          "duration": 0.18518499999999882,
          "durationTicks": 160,
          "midi": 45,
          "name": "A2",
          "ticks": 12480,
          "time": 14.44443,
          "velocity": 1
        },
        {
          "duration": 0.18518499999999882,
          "durationTicks": 160,
          "midi": 47,
          "name": "B2",
          "ticks": 12960,
          "time": 14.999985,
          "velocity": 1
        },
        {
          "duration": 0.18518499999999882,
          "durationTicks": 160,
          "midi": 48,
          "name": "C3",
          "ticks": 13440,
          "time": 15.55554,
          "velocity": 1
        },
        {
          "duration": 0.1851850000000006,
          "durationTicks": 160,
          "midi": 43,
          "name": "G2",
          "ticks": 14720,
          "time": 17.037020000000002,
          "velocity": 1
        },
        {
          "duration": 0.18518499999999705,
          "durationTicks": 160,
          "midi": 45,
          "name": "A2",
          "ticks": 14880,
          "time": 17.222205000000002,
          "velocity": 1
        },
        {
          "duration": 0.1851850000000006,
          "durationTicks": 160,
          "midi": 47,
          "name": "B2",
          "ticks": 15200,
          "time": 17.592575,
          "velocity": 1
        },
        {
          "duration": 0.1851850000000006,
          "durationTicks": 160,
          "midi": 48,
          "name": "C3",
          "ticks": 15360,
          "time": 17.77776,
          "velocity": 1
        },
        {
          "duration": 0.1851850000000006,
          "durationTicks": 160,
          "midi": 50,
          "name": "D3",
          "ticks": 16320,
          "time": 18.88887,
          "velocity": 1
        },
        {
          "duration": 0.1851850000000006,
          "durationTicks": 160,
          "midi": 48,
          "name": "C3",
          "ticks": 17280,
          "time": 19.99998,
          "velocity": 1
        },
        {
          "duration": 0.1851850000000006,
          "durationTicks": 160,
          "midi": 50,
          "name": "D3",
          "ticks": 18240,
          "time": 21.11109,
          "velocity": 1
        },
        {
          "duration": 0.1851850000000006,
          "durationTicks": 160,
          "midi": 48,
          "name": "C3",
          "ticks": 19200,
          "time": 22.2222,
          "velocity": 1
        },
        {
          "duration": 0.1851850000000006,
          "durationTicks": 160,
          "midi": 50,
          "name": "D3",
          "ticks": 20160,
          "time": 23.33331,
          "velocity": 1
        },
        {
          "duration": 0.1851850000000006,
          "durationTicks": 160,
          "midi": 43,
          "name": "G2",
          "ticks": 21120,
          "time": 24.44442,
          "velocity": 1
        },
        {
          "duration": 0.18518500000000415,
          "durationTicks": 160,
          "midi": 45,
          "name": "A2",
          "ticks": 21600,
          "time": 24.999975,
          "velocity": 1
        },
        {
          "duration": 0.1851850000000006,
          "durationTicks": 160,
          "midi": 46,
          "name": "A#2",
          "ticks": 22080,
          "time": 25.55553,
          "velocity": 1
        },
        {
          "duration": 0.1851850000000006,
          "durationTicks": 160,
          "midi": 47,
          "name": "B2",
          "ticks": 22560,
          "time": 26.111085000000003,
          "velocity": 1
        },
        {
          "duration": 0.1851850000000006,
          "durationTicks": 160,
          "midi": 48,
          "name": "C3",
          "ticks": 23040,
          "time": 26.66664,
          "velocity": 1
        },
        {
          "duration": 0.1851850000000006,
          "durationTicks": 160,
          "midi": 50,
          "name": "D3",
          "ticks": 24000,
          "time": 27.77775,
          "velocity": 1
        },
        {
          "duration": 0.1851850000000006,
          "durationTicks": 160,
          "midi": 48,
          "name": "C3",
          "ticks": 24960,
          "time": 28.88886,
          "velocity": 1
        },
        {
          "duration": 0.1851850000000006,
          "durationTicks": 160,
          "midi": 50,
          "name": "D3",
          "ticks": 25920,
          "time": 29.99997,
          "velocity": 1
        },
        {
          "duration": 0.1851850000000006,
          "durationTicks": 160,
          "midi": 48,
          "name": "C3",
          "ticks": 26880,
          "time": 31.11108,
          "velocity": 1
        },
        {
          "duration": 0.18518500000000415,
          "durationTicks": 160,
          "midi": 45,
          "name": "A2",
          "ticks": 27840,
          "time": 32.22219,
          "velocity": 1
        },
        {
          "duration": 0.18518499999999705,
          "durationTicks": 160,
          "midi": 47,
          "name": "B2",
          "ticks": 28320,
          "time": 32.777745,
          "velocity": 1
        },
        {
          "duration": 0.18518500000000415,
          "durationTicks": 160,
          "midi": 48,
          "name": "C3",
          "ticks": 28800,
          "time": 33.3333,
          "velocity": 1
        },
        {
          "duration": 0.18518500000000415,
          "durationTicks": 160,
          "midi": 43,
          "name": "G2",
          "ticks": 30080,
          "time": 34.81478,
          "velocity": 1
        },
        {
          "duration": 0.18518499999999705,
          "durationTicks": 160,
          "midi": 45,
          "name": "A2",
          "ticks": 30240,
          "time": 34.999965,
          "velocity": 1
        },
        {
          "duration": 0.18518500000000415,
          "durationTicks": 160,
          "midi": 47,
          "name": "B2",
          "ticks": 30560,
          "time": 35.370335,
          "velocity": 1
        }
      ]
    },
    {
      "channel": 0,
      "controlChanges": {
        "1": [
          {
            "number": 1,
            "ticks": 0,
            "time": 0,
            "value": 0
          }
        ],
        "7": [
          {
            "number": 7,
            "ticks": 0,
            "time": 0,
            "value": 1
          }
        ],
        "10": [
          {
            "number": 10,
            "ticks": 0,
            "time": 0,
            "value": 0.4251968503937008
          }
        ],
        "11": [
          {
            "number": 11,
            "ticks": 0,
            "time": 0,
            "value": 1
          }
        ]
      },
      "pitchBends": [],
      "instrument": {
        "family": "piano",
        "number": 0,
        "name": "acoustic grand piano"
      },
      "name": "Rhoz Trem",
      "notes": [],
      "endOfTrackTicks": 28880
    },
    {
      "channel": 1,
      "controlChanges": {},
      "pitchBends": [],
      "instrument": {
        "family": "guitar",
        "number": 27,
        "name": "electric guitar (clean)"
      },
      "name": "",
      "notes": [
        {
          "duration": 0.0925925,
          "durationTicks": 80,
          "midi": 60,
          "name": "C4",
          "ticks": 0,
          "time": 0,
          "velocity": 0.4645669291338583
        },
        {
          "duration": 0.0925925,
          "durationTicks": 80,
          "midi": 79,
          "name": "G5",
          "ticks": 0,
          "time": 0,
          "velocity": 0.6535433070866141
        },
        {
          "duration": 0.09259250000000008,
          "durationTicks": 80,
          "midi": 75,
          "name": "D#5",
          "ticks": 320,
          "time": 0.37037,
          "velocity": 0.5984251968503937
        },
        {
          "duration": 0.09259250000000008,
          "durationTicks": 80,
          "midi": 63,
          "name": "D#4",
          "ticks": 480,
          "time": 0.555555,
          "velocity": 0.5511811023622047
        },
        {
          "duration": 0.09259250000000008,
          "durationTicks": 80,
          "midi": 67,
          "name": "G4",
          "ticks": 480,
          "time": 0.555555,
          "velocity": 0.49606299212598426
        },
        {
          "duration": 0.09259250000000008,
          "durationTicks": 80,
          "midi": 72,
          "name": "C5",
          "ticks": 480,
          "time": 0.555555,
          "velocity": 0.5826771653543307
        },
        {
          "duration": 0.09259249999999986,
          "durationTicks": 80,
          "midi": 67,
          "name": "G4",
          "ticks": 800,
          "time": 0.9259250000000001,
          "velocity": 0.44881889763779526
        },
        {
          "duration": 0.09259249999999986,
          "durationTicks": 80,
          "midi": 50,
          "name": "D3",
          "ticks": 960,
          "time": 1.11111,
          "velocity": 0.5590551181102362
        },
        {
          "duration": 0.09259249999999986,
          "durationTicks": 80,
          "midi": 66,
          "name": "F#4",
          "ticks": 960,
          "time": 1.11111,
          "velocity": 0.5039370078740157
        },
        {
          "duration": 0.0925925000000003,
          "durationTicks": 80,
          "midi": 69,
          "name": "A4",
          "ticks": 1280,
          "time": 1.48148,
          "velocity": 0.08661417322834646
        },
        {
          "duration": 0.09259249999999986,
          "durationTicks": 80,
          "midi": 57,
          "name": "A3",
          "ticks": 1440,
          "time": 1.666665,
          "velocity": 0.5433070866141733
        },
        {
          "duration": 0.09259249999999986,
          "durationTicks": 80,
          "midi": 60,
          "name": "C4",
          "ticks": 1440,
          "time": 1.666665,
          "velocity": 0.5039370078740157
        },
        {
          "duration": 0.09259249999999986,
          "durationTicks": 80,
          "midi": 74,
          "name": "D5",
          "ticks": 1440,
          "time": 1.666665,
          "velocity": 0.6062992125984252
        },
        {
          "duration": 0.0925925000000003,
          "durationTicks": 80,
          "midi": 78,
          "name": "F#5",
          "ticks": 1760,
          "time": 2.037035,
          "velocity": 0.5275590551181102
        },
        {
          "duration": 0.0925925000000003,
          "durationTicks": 80,
          "midi": 60,
          "name": "C4",
          "ticks": 1920,
          "time": 2.22222,
          "velocity": 0.5826771653543307
        },
        {
          "duration": 0.0925925000000003,
          "durationTicks": 80,
          "midi": 79,
          "name": "G5",
          "ticks": 1920,
          "time": 2.22222,
          "velocity": 0.6850393700787402
        },
        {
          "duration": 0.0925925000000003,
          "durationTicks": 80,
          "midi": 63,
          "name": "D#4",
          "ticks": 2400,
          "time": 2.777775,
          "velocity": 0.5118110236220472
        },
        {
          "duration": 0.0925925000000003,
          "durationTicks": 80,
          "midi": 67,
          "name": "G4",
          "ticks": 2400,
          "time": 2.777775,
          "velocity": 0.44881889763779526
        },
        {
          "duration": 0.0925925000000003,
          "durationTicks": 80,
          "midi": 75,
          "name": "D#5",
          "ticks": 2400,
          "time": 2.777775,
          "velocity": 0.5984251968503937
        },
        {
          "duration": 0.09259249999999941,
          "durationTicks": 80,
          "midi": 79,
          "name": "G5",
          "ticks": 2720,
          "time": 3.1481450000000004,
          "velocity": 0.6299212598425197
        },
        {
          "duration": 0.0925925000000003,
          "durationTicks": 80,
          "midi": 50,
          "name": "D3",
          "ticks": 2880,
          "time": 3.33333,
          "velocity": 0.6062992125984252
        },
        {
          "duration": 0.0925925000000003,
          "durationTicks": 80,
          "midi": 81,
          "name": "A5",
          "ticks": 2880,
          "time": 3.33333,
          "velocity": 0.5905511811023622
        },
        {
          "duration": 0.0925925000000003,
          "durationTicks": 80,
          "midi": 57,
          "name": "A3",
          "ticks": 3360,
          "time": 3.888885,
          "velocity": 0.5433070866141733
        },
        {
          "duration": 0.0925925000000003,
          "durationTicks": 80,
          "midi": 60,
          "name": "C4",
          "ticks": 3360,
          "time": 3.888885,
          "velocity": 0.2992125984251969
        },
        {
          "duration": 0.0925925000000003,
          "durationTicks": 80,
          "midi": 78,
          "name": "F#5",
          "ticks": 3360,
          "time": 3.888885,
          "velocity": 0.6771653543307087
        },
        {
          "duration": 0.09259249999999941,
          "durationTicks": 80,
          "midi": 60,
          "name": "C4",
          "ticks": 3840,
          "time": 4.44444,
          "velocity": 0.5354330708661418
        },
        {
          "duration": 0.09259249999999941,
          "durationTicks": 80,
          "midi": 79,
          "name": "G5",
          "ticks": 3840,
          "time": 4.44444,
          "velocity": 0.6456692913385826
        },
        {
          "duration": 0.09259250000000119,
          "durationTicks": 80,
          "midi": 75,
          "name": "D#5",
          "ticks": 4160,
          "time": 4.81481,
          "velocity": 0.48031496062992124
        },
        {
          "duration": 0.09259249999999941,
          "durationTicks": 80,
          "midi": 63,
          "name": "D#4",
          "ticks": 4320,
          "time": 4.999995,
          "velocity": 0.5984251968503937
        },
        {
          "duration": 0.09259249999999941,
          "durationTicks": 80,
          "midi": 67,
          "name": "G4",
          "ticks": 4320,
          "time": 4.999995,
          "velocity": 0.5826771653543307
        },
        {
          "duration": 0.09259249999999941,
          "durationTicks": 80,
          "midi": 72,
          "name": "C5",
          "ticks": 4320,
          "time": 4.999995,
          "velocity": 0.49606299212598426
        },
        {
          "duration": 0.09259250000000119,
          "durationTicks": 80,
          "midi": 67,
          "name": "G4",
          "ticks": 4640,
          "time": 5.370365,
          "velocity": 0.12598425196850394
        },
        {
          "duration": 0.09259249999999941,
          "durationTicks": 80,
          "midi": 50,
          "name": "D3",
          "ticks": 4800,
          "time": 5.55555,
          "velocity": 0.25984251968503935
        },
        {
          "duration": 0.09259249999999941,
          "durationTicks": 80,
          "midi": 66,
          "name": "F#4",
          "ticks": 4800,
          "time": 5.55555,
          "velocity": 0.5433070866141733
        },
        {
          "duration": 0.09259250000000119,
          "durationTicks": 80,
          "midi": 69,
          "name": "A4",
          "ticks": 5120,
          "time": 5.92592,
          "velocity": 0.2204724409448819
        },
        {
          "duration": 0.09259249999999941,
          "durationTicks": 80,
          "midi": 57,
          "name": "A3",
          "ticks": 5280,
          "time": 6.111105,
          "velocity": 0.5826771653543307
        },
        {
          "duration": 0.09259249999999941,
          "durationTicks": 80,
          "midi": 60,
          "name": "C4",
          "ticks": 5280,
          "time": 6.111105,
          "velocity": 0.41732283464566927
        },
        {
          "duration": 0.09259249999999941,
          "durationTicks": 80,
          "midi": 72,
          "name": "C5",
          "ticks": 5280,
          "time": 6.111105,
          "velocity": 0.5984251968503937
        },
        {
          "duration": 0.09259250000000119,
          "durationTicks": 80,
          "midi": 69,
          "name": "A4",
          "ticks": 5600,
          "time": 6.481475,
          "velocity": 0.5984251968503937
        },
        {
          "duration": 0.09259249999999941,
          "durationTicks": 80,
          "midi": 55,
          "name": "G3",
          "ticks": 5760,
          "time": 6.66666,
          "velocity": 0.5826771653543307
        },
        {
          "duration": 0.09259249999999941,
          "durationTicks": 80,
          "midi": 67,
          "name": "G4",
          "ticks": 5760,
          "time": 6.66666,
          "velocity": 0.5275590551181102
        },
        {
          "duration": 0.09259249999999941,
          "durationTicks": 80,
          "midi": 71,
          "name": "B4",
          "ticks": 5760,
          "time": 6.66666,
          "velocity": 0.5275590551181102
        },
        {
          "duration": 0.09259249999999941,
          "durationTicks": 80,
          "midi": 57,
          "name": "A3",
          "ticks": 6240,
          "time": 7.222215,
          "velocity": 0.6141732283464567
        },
        {
          "duration": 0.09259249999999941,
          "durationTicks": 80,
          "midi": 69,
          "name": "A4",
          "ticks": 6240,
          "time": 7.222215,
          "velocity": 0.2755905511811024
        },
        {
          "duration": 0.09259249999999941,
          "durationTicks": 80,
          "midi": 72,
          "name": "C5",
          "ticks": 6240,
          "time": 7.222215,
          "velocity": 0.5118110236220472
        },
        {
          "duration": 0.09259249999999941,
          "durationTicks": 80,
          "midi": 58,
          "name": "A#3",
          "ticks": 6720,
          "time": 7.77777,
          "velocity": 0.6377952755905512
        },
        {
          "duration": 0.09259249999999941,
          "durationTicks": 80,
          "midi": 70,
          "name": "A#4",
          "ticks": 6720,
          "time": 7.77777,
          "velocity": 0.5039370078740157
        },
        {
          "duration": 0.09259249999999941,
          "durationTicks": 80,
          "midi": 73,
          "name": "C#5",
          "ticks": 6720,
          "time": 7.77777,
          "velocity": 0.49606299212598426
        },
        {
          "duration": 0.0925925000000003,
          "durationTicks": 80,
          "midi": 59,
          "name": "B3",
          "ticks": 7200,
          "time": 8.333325,
          "velocity": 0.5590551181102362
        },
        {
          "duration": 0.0925925000000003,
          "durationTicks": 80,
          "midi": 71,
          "name": "B4",
          "ticks": 7200,
          "time": 8.333325,
          "velocity": 0.5354330708661418
        },
        {
          "duration": 0.0925925000000003,
          "durationTicks": 80,
          "midi": 74,
          "name": "D5",
          "ticks": 7200,
          "time": 8.333325,
          "velocity": 0.5669291338582677
        },
        {
          "duration": 0.0925925000000003,
          "durationTicks": 80,
          "midi": 60,
          "name": "C4",
          "ticks": 7680,
          "time": 8.88888,
          "velocity": 0.5826771653543307
        },
        {
          "duration": 0.0925925000000003,
          "durationTicks": 80,
          "midi": 79,
          "name": "G5",
          "ticks": 7680,
          "time": 8.88888,
          "velocity": 0.6614173228346457
        },
        {
          "duration": 0.09259249999999852,
          "durationTicks": 80,
          "midi": 75,
          "name": "D#5",
          "ticks": 8000,
          "time": 9.259250000000002,
          "velocity": 0.5748031496062992
        },
        {
          "duration": 0.0925925000000003,
          "durationTicks": 80,
          "midi": 63,
          "name": "D#4",
          "ticks": 8160,
          "time": 9.444435,
          "velocity": 0.5748031496062992
        },
        {
          "duration": 0.0925925000000003,
          "durationTicks": 80,
          "midi": 67,
          "name": "G4",
          "ticks": 8160,
          "time": 9.444435,
          "velocity": 0.5196850393700787
        },
        {
          "duration": 0.0925925000000003,
          "durationTicks": 80,
          "midi": 72,
          "name": "C5",
          "ticks": 8160,
          "time": 9.444435,
          "velocity": 0.6220472440944882
        },
        {
          "duration": 0.09259249999999852,
          "durationTicks": 80,
          "midi": 67,
          "name": "G4",
          "ticks": 8480,
          "time": 9.814805000000002,
          "velocity": 0.25196850393700787
        },
        {
          "duration": 0.0925925000000003,
          "durationTicks": 80,
          "midi": 50,
          "name": "D3",
          "ticks": 8640,
          "time": 9.99999,
          "velocity": 0.6141732283464567
        },
        {
          "duration": 0.0925925000000003,
          "durationTicks": 80,
          "midi": 66,
          "name": "F#4",
          "ticks": 8640,
          "time": 9.99999,
          "velocity": 0.4330708661417323
        },
        {
          "duration": 0.09259249999999852,
          "durationTicks": 80,
          "midi": 69,
          "name": "A4",
          "ticks": 8960,
          "time": 10.370360000000002,
          "velocity": 0.11811023622047244
        },
        {
          "duration": 0.0925925000000003,
          "durationTicks": 80,
          "midi": 57,
          "name": "A3",
          "ticks": 9120,
          "time": 10.555545,
          "velocity": 0.5590551181102362
        },
        {
          "duration": 0.0925925000000003,
          "durationTicks": 80,
          "midi": 60,
          "name": "C4",
          "ticks": 9120,
          "time": 10.555545,
          "velocity": 0.41732283464566927
        },
        {
          "duration": 0.0925925000000003,
          "durationTicks": 80,
          "midi": 72,
          "name": "C5",
          "ticks": 9120,
          "time": 10.555545,
          "velocity": 0.5905511811023622
        },
        {
          "duration": 0.09259249999999852,
          "durationTicks": 80,
          "midi": 78,
          "name": "F#5",
          "ticks": 9440,
          "time": 10.925915000000002,
          "velocity": 0.5118110236220472
        },
        {
          "duration": 0.0925925000000003,
          "durationTicks": 80,
          "midi": 60,
          "name": "C4",
          "ticks": 9600,
          "time": 11.1111,
          "velocity": 0.49606299212598426
        },
        {
          "duration": 0.0925925000000003,
          "durationTicks": 80,
          "midi": 79,
          "name": "G5",
          "ticks": 9600,
          "time": 11.1111,
          "velocity": 0.6929133858267716
        },
        {
          "duration": 0.09259249999999852,
          "durationTicks": 80,
          "midi": 75,
          "name": "D#5",
          "ticks": 9920,
          "time": 11.481470000000002,
          "velocity": 0.5433070866141733
        },
        {
          "duration": 0.0925925000000003,
          "durationTicks": 80,
          "midi": 63,
          "name": "D#4",
          "ticks": 10080,
          "time": 11.666655,
          "velocity": 0.6377952755905512
        },
        {
          "duration": 0.0925925000000003,
          "durationTicks": 80,
          "midi": 67,
          "name": "G4",
          "ticks": 10080,
          "time": 11.666655,
          "velocity": 0.5826771653543307
        },
        {
          "duration": 0.0925925000000003,
          "durationTicks": 80,
          "midi": 72,
          "name": "C5",
          "ticks": 10080,
          "time": 11.666655,
          "velocity": 0.5826771653543307
        },
        {
          "duration": 0.09259249999999852,
          "durationTicks": 80,
          "midi": 79,
          "name": "G5",
          "ticks": 10400,
          "time": 12.037025000000002,
          "velocity": 0.5511811023622047
        },
        {
          "duration": 0.0925925000000003,
          "durationTicks": 80,
          "midi": 50,
          "name": "D3",
          "ticks": 10560,
          "time": 12.22221,
          "velocity": 0.5433070866141733
        },
        {
          "duration": 0.0925925000000003,
          "durationTicks": 80,
          "midi": 81,
          "name": "A5",
          "ticks": 10560,
          "time": 12.22221,
          "velocity": 0.5118110236220472
        },
        {
          "duration": 0.0925925000000003,
          "durationTicks": 80,
          "midi": 57,
          "name": "A3",
          "ticks": 11040,
          "time": 12.777765,
          "velocity": 0.5196850393700787
        },
        {
          "duration": 0.0925925000000003,
          "durationTicks": 80,
          "midi": 60,
          "name": "C4",
          "ticks": 11040,
          "time": 12.777765,
          "velocity": 0.4881889763779528
        },
        {
          "duration": 0.0925925000000003,
          "durationTicks": 80,
          "midi": 78,
          "name": "F#5",
          "ticks": 11040,
          "time": 12.777765,
          "velocity": 0.7322834645669292
        },
        {
          "duration": 0.0925925000000003,
          "durationTicks": 80,
          "midi": 60,
          "name": "C4",
          "ticks": 11520,
          "time": 13.33332,
          "velocity": 0.6062992125984252
        },
        {
          "duration": 0.0925925000000003,
          "durationTicks": 80,
          "midi": 79,
          "name": "G5",
          "ticks": 11520,
          "time": 13.33332,
          "velocity": 0.6220472440944882
        },
        {
          "duration": 0.09259249999999852,
          "durationTicks": 80,
          "midi": 75,
          "name": "D#5",
          "ticks": 11840,
          "time": 13.703690000000002,
          "velocity": 0.6141732283464567
        },
        {
          "duration": 0.0925925000000003,
          "durationTicks": 80,
          "midi": 63,
          "name": "D#4",
          "ticks": 12000,
          "time": 13.888875,
          "velocity": 0.6062992125984252
        },
        {
          "duration": 0.0925925000000003,
          "durationTicks": 80,
          "midi": 67,
          "name": "G4",
          "ticks": 12000,
          "time": 13.888875,
          "velocity": 0.5275590551181102
        },
        {
          "duration": 0.0925925000000003,
          "durationTicks": 80,
          "midi": 72,
          "name": "C5",
          "ticks": 12000,
          "time": 13.888875,
          "velocity": 0.6377952755905512
        },
        {
          "duration": 0.09259249999999852,
          "durationTicks": 80,
          "midi": 67,
          "name": "G4",
          "ticks": 12320,
          "time": 14.259245000000002,
          "velocity": 0.33858267716535434
        },
        {
          "duration": 0.0925925000000003,
          "durationTicks": 80,
          "midi": 57,
          "name": "A3",
          "ticks": 12480,
          "time": 14.44443,
          "velocity": 0.4881889763779528
        },
        {
          "duration": 0.0925925000000003,
          "durationTicks": 80,
          "midi": 66,
          "name": "F#4",
          "ticks": 12480,
          "time": 14.44443,
          "velocity": 0.4881889763779528
        },
        {
          "duration": 0.0925925000000003,
          "durationTicks": 80,
          "midi": 69,
          "name": "A4",
          "ticks": 12480,
          "time": 14.44443,
          "velocity": 0.48031496062992124
        },
        {
          "duration": 0.0925925000000003,
          "durationTicks": 80,
          "midi": 59,
          "name": "B3",
          "ticks": 12960,
          "time": 14.999985,
          "velocity": 0.5196850393700787
        },
        {
          "duration": 0.0925925000000003,
          "durationTicks": 80,
          "midi": 67,
          "name": "G4",
          "ticks": 12960,
          "time": 14.999985,
          "velocity": 0.47244094488188976
        },
        {
          "duration": 0.0925925000000003,
          "durationTicks": 80,
          "midi": 71,
          "name": "B4",
          "ticks": 12960,
          "time": 14.999985,
          "velocity": 0.5984251968503937
        },
        {
          "duration": 0.0925925000000003,
          "durationTicks": 80,
          "midi": 60,
          "name": "C4",
          "ticks": 13440,
          "time": 15.55554,
          "velocity": 0.4409448818897638
        },
        {
          "duration": 0.0925925000000003,
          "durationTicks": 80,
          "midi": 67,
          "name": "G4",
          "ticks": 13440,
          "time": 15.55554,
          "velocity": 0.5196850393700787
        },
        {
          "duration": 0.0925925000000003,
          "durationTicks": 80,
          "midi": 72,
          "name": "C5",
          "ticks": 13440,
          "time": 15.55554,
          "velocity": 0.5511811023622047
        },
        {
          "duration": 0.09259249999999852,
          "durationTicks": 80,
          "midi": 60,
          "name": "C4",
          "ticks": 15360,
          "time": 17.77776,
          "velocity": 0.4645669291338583
        },
        {
          "duration": 0.09259249999999852,
          "durationTicks": 80,
          "midi": 79,
          "name": "G5",
          "ticks": 15360,
          "time": 17.77776,
          "velocity": 0.6535433070866141
        },
        {
          "duration": 0.09259250000000208,
          "durationTicks": 80,
          "midi": 75,
          "name": "D#5",
          "ticks": 15680,
          "time": 18.14813,
          "velocity": 0.5984251968503937
        },
        {
          "duration": 0.09259250000000208,
          "durationTicks": 80,
          "midi": 63,
          "name": "D#4",
          "ticks": 15840,
          "time": 18.333315,
          "velocity": 0.5511811023622047
        },
        {
          "duration": 0.09259250000000208,
          "durationTicks": 80,
          "midi": 67,
          "name": "G4",
          "ticks": 15840,
          "time": 18.333315,
          "velocity": 0.49606299212598426
        },
        {
          "duration": 0.09259250000000208,
          "durationTicks": 80,
          "midi": 72,
          "name": "C5",
          "ticks": 15840,
          "time": 18.333315,
          "velocity": 0.5826771653543307
        },
        {
          "duration": 0.09259250000000208,
          "durationTicks": 80,
          "midi": 67,
          "name": "G4",
          "ticks": 16160,
          "time": 18.703685,
          "velocity": 0.44881889763779526
        },
        {
          "duration": 0.09259249999999852,
          "durationTicks": 80,
          "midi": 50,
          "name": "D3",
          "ticks": 16320,
          "time": 18.88887,
          "velocity": 0.5590551181102362
        },
        {
          "duration": 0.09259249999999852,
          "durationTicks": 80,
          "midi": 66,
          "name": "F#4",
          "ticks": 16320,
          "time": 18.88887,
          "velocity": 0.5039370078740157
        },
        {
          "duration": 0.09259250000000208,
          "durationTicks": 80,
          "midi": 69,
          "name": "A4",
          "ticks": 16640,
          "time": 19.25924,
          "velocity": 0.08661417322834646
        },
        {
          "duration": 0.09259249999999852,
          "durationTicks": 80,
          "midi": 57,
          "name": "A3",
          "ticks": 16800,
          "time": 19.444425000000003,
          "velocity": 0.5433070866141733
        },
        {
          "duration": 0.09259249999999852,
          "durationTicks": 80,
          "midi": 60,
          "name": "C4",
          "ticks": 16800,
          "time": 19.444425000000003,
          "velocity": 0.5039370078740157
        },
        {
          "duration": 0.09259249999999852,
          "durationTicks": 80,
          "midi": 74,
          "name": "D5",
          "ticks": 16800,
          "time": 19.444425000000003,
          "velocity": 0.6062992125984252
        },
        {
          "duration": 0.09259250000000208,
          "durationTicks": 80,
          "midi": 78,
          "name": "F#5",
          "ticks": 17120,
          "time": 19.814795,
          "velocity": 0.5275590551181102
        },
        {
          "duration": 0.09259249999999852,
          "durationTicks": 80,
          "midi": 60,
          "name": "C4",
          "ticks": 17280,
          "time": 19.99998,
          "velocity": 0.5826771653543307
        },
        {
          "duration": 0.09259249999999852,
          "durationTicks": 80,
          "midi": 79,
          "name": "G5",
          "ticks": 17280,
          "time": 19.99998,
          "velocity": 0.6850393700787402
        },
        {
          "duration": 0.09259250000000208,
          "durationTicks": 80,
          "midi": 63,
          "name": "D#4",
          "ticks": 17760,
          "time": 20.555535,
          "velocity": 0.5118110236220472
        },
        {
          "duration": 0.09259250000000208,
          "durationTicks": 80,
          "midi": 67,
          "name": "G4",
          "ticks": 17760,
          "time": 20.555535,
          "velocity": 0.44881889763779526
        },
        {
          "duration": 0.09259250000000208,
          "durationTicks": 80,
          "midi": 75,
          "name": "D#5",
          "ticks": 17760,
          "time": 20.555535,
          "velocity": 0.5984251968503937
        },
        {
          "duration": 0.09259250000000208,
          "durationTicks": 80,
          "midi": 79,
          "name": "G5",
          "ticks": 18080,
          "time": 20.925905,
          "velocity": 0.6299212598425197
        },
        {
          "duration": 0.09259249999999852,
          "durationTicks": 80,
          "midi": 50,
          "name": "D3",
          "ticks": 18240,
          "time": 21.11109,
          "velocity": 0.6062992125984252
        },
        {
          "duration": 0.09259249999999852,
          "durationTicks": 80,
          "midi": 81,
          "name": "A5",
          "ticks": 18240,
          "time": 21.11109,
          "velocity": 0.5905511811023622
        },
        {
          "duration": 0.09259249999999852,
          "durationTicks": 80,
          "midi": 57,
          "name": "A3",
          "ticks": 18720,
          "time": 21.666645000000003,
          "velocity": 0.5433070866141733
        },
        {
          "duration": 0.09259249999999852,
          "durationTicks": 80,
          "midi": 60,
          "name": "C4",
          "ticks": 18720,
          "time": 21.666645000000003,
          "velocity": 0.2992125984251969
        },
        {
          "duration": 0.09259249999999852,
          "durationTicks": 80,
          "midi": 78,
          "name": "F#5",
          "ticks": 18720,
          "time": 21.666645000000003,
          "velocity": 0.6771653543307087
        },
        {
          "duration": 0.09259249999999852,
          "durationTicks": 80,
          "midi": 60,
          "name": "C4",
          "ticks": 19200,
          "time": 22.2222,
          "velocity": 0.5354330708661418
        },
        {
          "duration": 0.09259249999999852,
          "durationTicks": 80,
          "midi": 79,
          "name": "G5",
          "ticks": 19200,
          "time": 22.2222,
          "velocity": 0.6456692913385826
        },
        {
          "duration": 0.09259250000000208,
          "durationTicks": 80,
          "midi": 75,
          "name": "D#5",
          "ticks": 19520,
          "time": 22.59257,
          "velocity": 0.48031496062992124
        },
        {
          "duration": 0.09259250000000208,
          "durationTicks": 80,
          "midi": 63,
          "name": "D#4",
          "ticks": 19680,
          "time": 22.777755,
          "velocity": 0.5984251968503937
        },
        {
          "duration": 0.09259250000000208,
          "durationTicks": 80,
          "midi": 67,
          "name": "G4",
          "ticks": 19680,
          "time": 22.777755,
          "velocity": 0.5826771653543307
        },
        {
          "duration": 0.09259250000000208,
          "durationTicks": 80,
          "midi": 72,
          "name": "C5",
          "ticks": 19680,
          "time": 22.777755,
          "velocity": 0.49606299212598426
        },
        {
          "duration": 0.09259250000000208,
          "durationTicks": 80,
          "midi": 67,
          "name": "G4",
          "ticks": 20000,
          "time": 23.148125,
          "velocity": 0.12598425196850394
        },
        {
          "duration": 0.09259249999999852,
          "durationTicks": 80,
          "midi": 50,
          "name": "D3",
          "ticks": 20160,
          "time": 23.33331,
          "velocity": 0.25984251968503935
        },
        {
          "duration": 0.09259249999999852,
          "durationTicks": 80,
          "midi": 66,
          "name": "F#4",
          "ticks": 20160,
          "time": 23.33331,
          "velocity": 0.5433070866141733
        },
        {
          "duration": 0.09259250000000208,
          "durationTicks": 80,
          "midi": 69,
          "name": "A4",
          "ticks": 20480,
          "time": 23.70368,
          "velocity": 0.2204724409448819
        },
        {
          "duration": 0.09259249999999852,
          "durationTicks": 80,
          "midi": 57,
          "name": "A3",
          "ticks": 20640,
          "time": 23.888865000000003,
          "velocity": 0.5826771653543307
        },
        {
          "duration": 0.09259249999999852,
          "durationTicks": 80,
          "midi": 60,
          "name": "C4",
          "ticks": 20640,
          "time": 23.888865000000003,
          "velocity": 0.41732283464566927
        },
        {
          "duration": 0.09259249999999852,
          "durationTicks": 80,
          "midi": 72,
          "name": "C5",
          "ticks": 20640,
          "time": 23.888865000000003,
          "velocity": 0.5984251968503937
        },
        {
          "duration": 0.09259250000000208,
          "durationTicks": 80,
          "midi": 69,
          "name": "A4",
          "ticks": 20960,
          "time": 24.259235,
          "velocity": 0.5984251968503937
        },
        {
          "duration": 0.09259249999999852,
          "durationTicks": 80,
          "midi": 55,
          "name": "G3",
          "ticks": 21120,
          "time": 24.44442,
          "velocity": 0.5826771653543307
        },
        {
          "duration": 0.09259249999999852,
          "durationTicks": 80,
          "midi": 67,
          "name": "G4",
          "ticks": 21120,
          "time": 24.44442,
          "velocity": 0.5275590551181102
        },
        {
          "duration": 0.09259249999999852,
          "durationTicks": 80,
          "midi": 71,
          "name": "B4",
          "ticks": 21120,
          "time": 24.44442,
          "velocity": 0.5275590551181102
        },
        {
          "duration": 0.09259250000000208,
          "durationTicks": 80,
          "midi": 57,
          "name": "A3",
          "ticks": 21600,
          "time": 24.999975,
          "velocity": 0.6141732283464567
        },
        {
          "duration": 0.09259250000000208,
          "durationTicks": 80,
          "midi": 69,
          "name": "A4",
          "ticks": 21600,
          "time": 24.999975,
          "velocity": 0.2755905511811024
        },
        {
          "duration": 0.09259250000000208,
          "durationTicks": 80,
          "midi": 72,
          "name": "C5",
          "ticks": 21600,
          "time": 24.999975,
          "velocity": 0.5118110236220472
        },
        {
          "duration": 0.09259249999999852,
          "durationTicks": 80,
          "midi": 58,
          "name": "A#3",
          "ticks": 22080,
          "time": 25.55553,
          "velocity": 0.6377952755905512
        },
        {
          "duration": 0.09259249999999852,
          "durationTicks": 80,
          "midi": 70,
          "name": "A#4",
          "ticks": 22080,
          "time": 25.55553,
          "velocity": 0.5039370078740157
        },
        {
          "duration": 0.09259249999999852,
          "durationTicks": 80,
          "midi": 73,
          "name": "C#5",
          "ticks": 22080,
          "time": 25.55553,
          "velocity": 0.49606299212598426
        },
        {
          "duration": 0.09259249999999852,
          "durationTicks": 80,
          "midi": 59,
          "name": "B3",
          "ticks": 22560,
          "time": 26.111085000000003,
          "velocity": 0.5590551181102362
        },
        {
          "duration": 0.09259249999999852,
          "durationTicks": 80,
          "midi": 71,
          "name": "B4",
          "ticks": 22560,
          "time": 26.111085000000003,
          "velocity": 0.5354330708661418
        },
        {
          "duration": 0.09259249999999852,
          "durationTicks": 80,
          "midi": 74,
          "name": "D5",
          "ticks": 22560,
          "time": 26.111085000000003,
          "velocity": 0.5669291338582677
        },
        {
          "duration": 0.09259249999999852,
          "durationTicks": 80,
          "midi": 60,
          "name": "C4",
          "ticks": 23040,
          "time": 26.66664,
          "velocity": 0.5826771653543307
        },
        {
          "duration": 0.09259249999999852,
          "durationTicks": 80,
          "midi": 79,
          "name": "G5",
          "ticks": 23040,
          "time": 26.66664,
          "velocity": 0.6614173228346457
        },
        {
          "duration": 0.09259250000000208,
          "durationTicks": 80,
          "midi": 75,
          "name": "D#5",
          "ticks": 23360,
          "time": 27.03701,
          "velocity": 0.5748031496062992
        },
        {
          "duration": 0.09259250000000208,
          "durationTicks": 80,
          "midi": 63,
          "name": "D#4",
          "ticks": 23520,
          "time": 27.222195,
          "velocity": 0.5748031496062992
        },
        {
          "duration": 0.09259250000000208,
          "durationTicks": 80,
          "midi": 67,
          "name": "G4",
          "ticks": 23520,
          "time": 27.222195,
          "velocity": 0.5196850393700787
        },
        {
          "duration": 0.09259250000000208,
          "durationTicks": 80,
          "midi": 72,
          "name": "C5",
          "ticks": 23520,
          "time": 27.222195,
          "velocity": 0.6220472440944882
        },
        {
          "duration": 0.09259250000000208,
          "durationTicks": 80,
          "midi": 67,
          "name": "G4",
          "ticks": 23840,
          "time": 27.592565,
          "velocity": 0.25196850393700787
        },
        {
          "duration": 0.09259249999999852,
          "durationTicks": 80,
          "midi": 50,
          "name": "D3",
          "ticks": 24000,
          "time": 27.77775,
          "velocity": 0.6141732283464567
        },
        {
          "duration": 0.09259249999999852,
          "durationTicks": 80,
          "midi": 66,
          "name": "F#4",
          "ticks": 24000,
          "time": 27.77775,
          "velocity": 0.4330708661417323
        },
        {
          "duration": 0.09259250000000208,
          "durationTicks": 80,
          "midi": 69,
          "name": "A4",
          "ticks": 24320,
          "time": 28.14812,
          "velocity": 0.11811023622047244
        },
        {
          "duration": 0.09259249999999852,
          "durationTicks": 80,
          "midi": 57,
          "name": "A3",
          "ticks": 24480,
          "time": 28.333305000000003,
          "velocity": 0.5590551181102362
        },
        {
          "duration": 0.09259249999999852,
          "durationTicks": 80,
          "midi": 60,
          "name": "C4",
          "ticks": 24480,
          "time": 28.333305000000003,
          "velocity": 0.41732283464566927
        },
        {
          "duration": 0.09259249999999852,
          "durationTicks": 80,
          "midi": 72,
          "name": "C5",
          "ticks": 24480,
          "time": 28.333305000000003,
          "velocity": 0.5905511811023622
        },
        {
          "duration": 0.09259250000000208,
          "durationTicks": 80,
          "midi": 78,
          "name": "F#5",
          "ticks": 24800,
          "time": 28.703675,
          "velocity": 0.5118110236220472
        },
        {
          "duration": 0.09259249999999852,
          "durationTicks": 80,
          "midi": 60,
          "name": "C4",
          "ticks": 24960,
          "time": 28.88886,
          "velocity": 0.49606299212598426
        },
        {
          "duration": 0.09259249999999852,
          "durationTicks": 80,
          "midi": 79,
          "name": "G5",
          "ticks": 24960,
          "time": 28.88886,
          "velocity": 0.6929133858267716
        },
        {
          "duration": 0.09259250000000208,
          "durationTicks": 80,
          "midi": 75,
          "name": "D#5",
          "ticks": 25280,
          "time": 29.25923,
          "velocity": 0.5433070866141733
        },
        {
          "duration": 0.09259250000000208,
          "durationTicks": 80,
          "midi": 63,
          "name": "D#4",
          "ticks": 25440,
          "time": 29.444415,
          "velocity": 0.6377952755905512
        },
        {
          "duration": 0.09259250000000208,
          "durationTicks": 80,
          "midi": 67,
          "name": "G4",
          "ticks": 25440,
          "time": 29.444415,
          "velocity": 0.5826771653543307
        },
        {
          "duration": 0.09259250000000208,
          "durationTicks": 80,
          "midi": 72,
          "name": "C5",
          "ticks": 25440,
          "time": 29.444415,
          "velocity": 0.5826771653543307
        },
        {
          "duration": 0.09259250000000208,
          "durationTicks": 80,
          "midi": 79,
          "name": "G5",
          "ticks": 25760,
          "time": 29.814785,
          "velocity": 0.5511811023622047
        },
        {
          "duration": 0.09259249999999852,
          "durationTicks": 80,
          "midi": 50,
          "name": "D3",
          "ticks": 25920,
          "time": 29.99997,
          "velocity": 0.5433070866141733
        },
        {
          "duration": 0.09259249999999852,
          "durationTicks": 80,
          "midi": 81,
          "name": "A5",
          "ticks": 25920,
          "time": 29.99997,
          "velocity": 0.5118110236220472
        },
        {
          "duration": 0.09259249999999852,
          "durationTicks": 80,
          "midi": 57,
          "name": "A3",
          "ticks": 26400,
          "time": 30.555525000000003,
          "velocity": 0.5196850393700787
        },
        {
          "duration": 0.09259249999999852,
          "durationTicks": 80,
          "midi": 60,
          "name": "C4",
          "ticks": 26400,
          "time": 30.555525000000003,
          "velocity": 0.4881889763779528
        },
        {
          "duration": 0.09259249999999852,
          "durationTicks": 80,
          "midi": 78,
          "name": "F#5",
          "ticks": 26400,
          "time": 30.555525000000003,
          "velocity": 0.7322834645669292
        },
        {
          "duration": 0.09259249999999852,
          "durationTicks": 80,
          "midi": 60,
          "name": "C4",
          "ticks": 26880,
          "time": 31.11108,
          "velocity": 0.6062992125984252
        },
        {
          "duration": 0.09259249999999852,
          "durationTicks": 80,
          "midi": 79,
          "name": "G5",
          "ticks": 26880,
          "time": 31.11108,
          "velocity": 0.6220472440944882
        },
        {
          "duration": 0.09259250000000208,
          "durationTicks": 80,
          "midi": 75,
          "name": "D#5",
          "ticks": 27200,
          "time": 31.48145,
          "velocity": 0.6141732283464567
        },
        {
          "duration": 0.09259250000000208,
          "durationTicks": 80,
          "midi": 63,
          "name": "D#4",
          "ticks": 27360,
          "time": 31.666635,
          "velocity": 0.6062992125984252
        },
        {
          "duration": 0.09259250000000208,
          "durationTicks": 80,
          "midi": 67,
          "name": "G4",
          "ticks": 27360,
          "time": 31.666635,
          "velocity": 0.5275590551181102
        },
        {
          "duration": 0.09259250000000208,
          "durationTicks": 80,
          "midi": 72,
          "name": "C5",
          "ticks": 27360,
          "time": 31.666635,
          "velocity": 0.6377952755905512
        },
        {
          "duration": 0.09259250000000208,
          "durationTicks": 80,
          "midi": 67,
          "name": "G4",
          "ticks": 27680,
          "time": 32.037005,
          "velocity": 0.33858267716535434
        },
        {
          "duration": 0.09259250000000208,
          "durationTicks": 80,
          "midi": 57,
          "name": "A3",
          "ticks": 27840,
          "time": 32.22219,
          "velocity": 0.4881889763779528
        },
        {
          "duration": 0.09259250000000208,
          "durationTicks": 80,
          "midi": 66,
          "name": "F#4",
          "ticks": 27840,
          "time": 32.22219,
          "velocity": 0.4881889763779528
        },
        {
          "duration": 0.09259250000000208,
          "durationTicks": 80,
          "midi": 69,
          "name": "A4",
          "ticks": 27840,
          "time": 32.22219,
          "velocity": 0.48031496062992124
        },
        {
          "duration": 0.09259249999999497,
          "durationTicks": 80,
          "midi": 59,
          "name": "B3",
          "ticks": 28320,
          "time": 32.777745,
          "velocity": 0.5196850393700787
        },
        {
          "duration": 0.09259249999999497,
          "durationTicks": 80,
          "midi": 67,
          "name": "G4",
          "ticks": 28320,
          "time": 32.777745,
          "velocity": 0.47244094488188976
        },
        {
          "duration": 0.09259249999999497,
          "durationTicks": 80,
          "midi": 71,
          "name": "B4",
          "ticks": 28320,
          "time": 32.777745,
          "velocity": 0.5984251968503937
        },
        {
          "duration": 0.09259250000000208,
          "durationTicks": 80,
          "midi": 60,
          "name": "C4",
          "ticks": 28800,
          "time": 33.3333,
          "velocity": 0.4409448818897638
        },
        {
          "duration": 0.09259250000000208,
          "durationTicks": 80,
          "midi": 67,
          "name": "G4",
          "ticks": 28800,
          "time": 33.3333,
          "velocity": 0.5196850393700787
        },
        {
          "duration": 0.09259250000000208,
          "durationTicks": 80,
          "midi": 72,
          "name": "C5",
          "ticks": 28800,
          "time": 33.3333,
          "velocity": 0.5511811023622047
        }
      ]
    },
    {
      "channel": 0,
      "controlChanges": {
        "1": [
          {
            "number": 1,
            "ticks": 0,
            "time": 0,
            "value": 0
          }
        ],
        "7": [
          {
            "number": 7,
            "ticks": 0,
            "time": 0,
            "value": 1
          }
        ],
        "10": [
          {
            "number": 10,
            "ticks": 0,
            "time": 0,
            "value": 0.5039370078740157
          }
        ],
        "11": [
          {
            "number": 11,
            "ticks": 0,
            "time": 0,
            "value": 1
          }
        ]
      },
      "pitchBends": [],
      "instrument": {
        "family": "piano",
        "number": 0,
        "name": "acoustic grand piano"
      },
      "name": "Music Box",
      "notes": [],
      "endOfTrackTicks": 13760
    },
    {
      "channel": 2,
      "controlChanges": {},
      "pitchBends": [],
      "instrument": {
        "family": "organ",
        "number": 16,
        "name": "drawbar organ"
      },
      "name": "",
      "notes": [
        {
          "duration": 0.37037,
          "durationTicks": 320,
          "midi": 79,
          "name": "G5",
          "ticks": 0,
          "time": 0,
          "velocity": 0.5118110236220472
        },
        {
          "duration": 0.37037,
          "durationTicks": 320,
          "midi": 75,
          "name": "D#5",
          "ticks": 320,
          "time": 0.37037,
          "velocity": 0.5118110236220472
        },
        {
          "duration": 0.3703700000000001,
          "durationTicks": 320,
          "midi": 72,
          "name": "C5",
          "ticks": 480,
          "time": 0.555555,
          "velocity": 0.5118110236220472
        },
        {
          "duration": 0.3703700000000001,
          "durationTicks": 320,
          "midi": 67,
          "name": "G4",
          "ticks": 800,
          "time": 0.9259250000000001,
          "velocity": 0.5118110236220472
        },
        {
          "duration": 0.555555,
          "durationTicks": 480,
          "midi": 66,
          "name": "F#4",
          "ticks": 960,
          "time": 1.11111,
          "velocity": 0.5118110236220472
        },
        {
          "duration": 0.3703700000000003,
          "durationTicks": 320,
          "midi": 69,
          "name": "A4",
          "ticks": 1280,
          "time": 1.48148,
          "velocity": 0.5118110236220472
        },
        {
          "duration": 0.555555,
          "durationTicks": 480,
          "midi": 74,
          "name": "D5",
          "ticks": 1440,
          "time": 1.666665,
          "velocity": 0.5118110236220472
        },
        {
          "duration": 0.37036999999999987,
          "durationTicks": 320,
          "midi": 78,
          "name": "F#5",
          "ticks": 1760,
          "time": 2.037035,
          "velocity": 0.5118110236220472
        },
        {
          "duration": 0.3703700000000003,
          "durationTicks": 320,
          "midi": 79,
          "name": "G5",
          "ticks": 1920,
          "time": 2.22222,
          "velocity": 0.5118110236220472
        },
        {
          "duration": 0.3703700000000003,
          "durationTicks": 320,
          "midi": 75,
          "name": "D#5",
          "ticks": 2400,
          "time": 2.777775,
          "velocity": 0.5118110236220472
        },
        {
          "duration": 0.3703699999999994,
          "durationTicks": 320,
          "midi": 79,
          "name": "G5",
          "ticks": 2720,
          "time": 3.1481450000000004,
          "velocity": 0.5118110236220472
        },
        {
          "duration": 0.3703700000000003,
          "durationTicks": 320,
          "midi": 81,
          "name": "A5",
          "ticks": 2880,
          "time": 3.33333,
          "velocity": 0.5118110236220472
        },
        {
          "duration": 0.3703700000000003,
          "durationTicks": 320,
          "midi": 78,
          "name": "F#5",
          "ticks": 3360,
          "time": 3.888885,
          "velocity": 0.5118110236220472
        },
        {
          "duration": 0.3703699999999994,
          "durationTicks": 320,
          "midi": 79,
          "name": "G5",
          "ticks": 3840,
          "time": 4.44444,
          "velocity": 0.5118110236220472
        },
        {
          "duration": 0.3703700000000012,
          "durationTicks": 320,
          "midi": 75,
          "name": "D#5",
          "ticks": 4160,
          "time": 4.81481,
          "velocity": 0.5118110236220472
        },
        {
          "duration": 0.3703699999999994,
          "durationTicks": 320,
          "midi": 72,
          "name": "C5",
          "ticks": 4320,
          "time": 4.999995,
          "velocity": 0.5118110236220472
        },
        {
          "duration": 0.3703700000000012,
          "durationTicks": 320,
          "midi": 67,
          "name": "G4",
          "ticks": 4640,
          "time": 5.370365,
          "velocity": 0.5118110236220472
        },
        {
          "duration": 0.3703699999999994,
          "durationTicks": 320,
          "midi": 66,
          "name": "F#4",
          "ticks": 4800,
          "time": 5.55555,
          "velocity": 0.5118110236220472
        },
        {
          "duration": 0.3703700000000012,
          "durationTicks": 320,
          "midi": 69,
          "name": "A4",
          "ticks": 5120,
          "time": 5.92592,
          "velocity": 0.5118110236220472
        },
        {
          "duration": 0.3703699999999994,
          "durationTicks": 320,
          "midi": 72,
          "name": "C5",
          "ticks": 5280,
          "time": 6.111105,
          "velocity": 0.5118110236220472
        },
        {
          "duration": 0.3703700000000012,
          "durationTicks": 320,
          "midi": 69,
          "name": "A4",
          "ticks": 5600,
          "time": 6.481475,
          "velocity": 0.5118110236220472
        },
        {
          "duration": 0.3703699999999994,
          "durationTicks": 320,
          "midi": 67,
          "name": "G4",
          "ticks": 5760,
          "time": 6.66666,
          "velocity": 0.5118110236220472
        },
        {
          "duration": 0.3703699999999994,
          "durationTicks": 320,
          "midi": 71,
          "name": "B4",
          "ticks": 5760,
          "time": 6.66666,
          "velocity": 0.5118110236220472
        },
        {
          "duration": 0.3703699999999994,
          "durationTicks": 320,
          "midi": 69,
          "name": "A4",
          "ticks": 6240,
          "time": 7.222215,
          "velocity": 0.5118110236220472
        },
        {
          "duration": 0.3703699999999994,
          "durationTicks": 320,
          "midi": 72,
          "name": "C5",
          "ticks": 6240,
          "time": 7.222215,
          "velocity": 0.5118110236220472
        },
        {
          "duration": 0.3703699999999994,
          "durationTicks": 320,
          "midi": 70,
          "name": "A#4",
          "ticks": 6720,
          "time": 7.77777,
          "velocity": 0.5118110236220472
        },
        {
          "duration": 0.3703699999999994,
          "durationTicks": 320,
          "midi": 73,
          "name": "C#5",
          "ticks": 6720,
          "time": 7.77777,
          "velocity": 0.5118110236220472
        },
        {
          "duration": 0.3703699999999994,
          "durationTicks": 320,
          "midi": 71,
          "name": "B4",
          "ticks": 7200,
          "time": 8.333325,
          "velocity": 0.5118110236220472
        },
        {
          "duration": 0.3703699999999994,
          "durationTicks": 320,
          "midi": 74,
          "name": "D5",
          "ticks": 7200,
          "time": 8.333325,
          "velocity": 0.5118110236220472
        },
        {
          "duration": 0.3703699999999994,
          "durationTicks": 320,
          "midi": 79,
          "name": "G5",
          "ticks": 7699,
          "time": 8.910870718750001,
          "velocity": 0.5118110236220472
        },
        {
          "duration": 0.3703699999999994,
          "durationTicks": 320,
          "midi": 75,
          "name": "D#5",
          "ticks": 8008,
          "time": 9.268509250000001,
          "velocity": 0.5118110236220472
        },
        {
          "duration": 0.37036999999999765,
          "durationTicks": 320,
          "midi": 72,
          "name": "C5",
          "ticks": 8165,
          "time": 9.450222031250002,
          "velocity": 0.5118110236220472
        },
        {
          "duration": 0.37036999999999765,
          "durationTicks": 320,
          "midi": 67,
          "name": "G4",
          "ticks": 8482,
          "time": 9.817119812500001,
          "velocity": 0.5118110236220472
        },
        {
          "duration": 0.555555,
          "durationTicks": 480,
          "midi": 66,
          "name": "F#4",
          "ticks": 8647,
          "time": 10.008091843750002,
          "velocity": 0.5118110236220472
        },
        {
          "duration": 0.3703699999999994,
          "durationTicks": 320,
          "midi": 69,
          "name": "A4",
          "ticks": 8954,
          "time": 10.3634155625,
          "velocity": 0.5118110236220472
        },
        {
          "duration": 0.3703700000000012,
          "durationTicks": 320,
          "midi": 72,
          "name": "C5",
          "ticks": 9109,
          "time": 10.54281353125,
          "velocity": 0.5118110236220472
        },
        {
          "duration": 0.3703699999999994,
          "durationTicks": 320,
          "midi": 78,
          "name": "F#5",
          "ticks": 9402,
          "time": 10.8819335625,
          "velocity": 0.5118110236220472
        },
        {
          "duration": 0.3703700000000012,
          "durationTicks": 320,
          "midi": 79,
          "name": "G5",
          "ticks": 9584,
          "time": 11.0925815,
          "velocity": 0.5118110236220472
        },
        {
          "duration": 0.3703699999999994,
          "durationTicks": 320,
          "midi": 75,
          "name": "D#5",
          "ticks": 9898,
          "time": 11.456007062500001,
          "velocity": 0.5118110236220472
        },
        {
          "duration": 0.3703700000000012,
          "durationTicks": 320,
          "midi": 72,
          "name": "C5",
          "ticks": 10073,
          "time": 11.658553156249999,
          "velocity": 0.5118110236220472
        },
        {
          "duration": 0.3703699999999994,
          "durationTicks": 320,
          "midi": 79,
          "name": "G5",
          "ticks": 10390,
          "time": 12.0254509375,
          "velocity": 0.5118110236220472
        },
        {
          "duration": 0.3703700000000012,
          "durationTicks": 320,
          "midi": 81,
          "name": "A5",
          "ticks": 10538,
          "time": 12.1967470625,
          "velocity": 0.5118110236220472
        },
        {
          "duration": 0.3703700000000012,
          "durationTicks": 320,
          "midi": 78,
          "name": "F#5",
          "ticks": 11035,
          "time": 12.771977968749999,
          "velocity": 0.5118110236220472
        },
        {
          "duration": 0.3703700000000012,
          "durationTicks": 320,
          "midi": 79,
          "name": "G5",
          "ticks": 11520,
          "time": 13.33332,
          "velocity": 0.5118110236220472
        },
        {
          "duration": 0.3703700000000012,
          "durationTicks": 320,
          "midi": 75,
          "name": "D#5",
          "ticks": 11879,
          "time": 13.74882884375,
          "velocity": 0.5118110236220472
        },
        {
          "duration": 0.3703699999999994,
          "durationTicks": 320,
          "midi": 72,
          "name": "C5",
          "ticks": 12023,
          "time": 13.91549534375,
          "velocity": 0.5118110236220472
        },
        {
          "duration": 0.3703700000000012,
          "durationTicks": 320,
          "midi": 67,
          "name": "G4",
          "ticks": 12311,
          "time": 14.24882834375,
          "velocity": 0.5118110236220472
        },
        {
          "duration": 0.555555,
          "durationTicks": 480,
          "midi": 75,
          "name": "D#5",
          "ticks": 12480,
          "time": 14.44443,
          "velocity": 0.5118110236220472
        },
        {
          "duration": 0.3703700000000012,
          "durationTicks": 320,
          "midi": 74,
          "name": "D5",
          "ticks": 12960,
          "time": 14.999985,
          "velocity": 0.5118110236220472
        },
        {
          "duration": 0.3703700000000012,
          "durationTicks": 320,
          "midi": 72,
          "name": "C5",
          "ticks": 13440,
          "time": 15.55554,
          "velocity": 0.5118110236220472
        }
      ]
    },
    {
      "channel": 0,
      "controlChanges": {
        "1": [
          {
            "number": 1,
            "ticks": 0,
            "time": 0,
            "value": 0
          }
        ],
        "7": [
          {
            "number": 7,
            "ticks": 0,
            "time": 0,
            "value": 1
          }
        ],
        "10": [
          {
            "number": 10,
            "ticks": 0,
            "time": 0,
            "value": 0.2677165354330709
          }
        ],
        "11": [
          {
            "number": 11,
            "ticks": 0,
            "time": 0,
            "value": 1
          }
        ]
      },
      "pitchBends": [],
      "instrument": {
        "family": "piano",
        "number": 0,
        "name": "acoustic grand piano"
      },
      "name": "Music Box L",
      "notes": [],
      "endOfTrackTicks": 13820
    },
    {
      "channel": 3,
      "controlChanges": {},
      "pitchBends": [],
      "instrument": {
        "family": "organ",
        "number": 16,
        "name": "drawbar organ"
      },
      "name": "",
      "notes": [
        {
          "duration": 0.37037,
          "durationTicks": 320,
          "midi": 79,
          "name": "G5",
          "ticks": 60,
          "time": 0.069444375,
          "velocity": 0.2677165354330709
        },
        {
          "duration": 0.37037,
          "durationTicks": 320,
          "midi": 75,
          "name": "D#5",
          "ticks": 380,
          "time": 0.439814375,
          "velocity": 0.2677165354330709
        },
        {
          "duration": 0.3703700000000001,
          "durationTicks": 320,
          "midi": 72,
          "name": "C5",
          "ticks": 540,
          "time": 0.624999375,
          "velocity": 0.2677165354330709
        },
        {
          "duration": 0.3703700000000001,
          "durationTicks": 320,
          "midi": 67,
          "name": "G4",
          "ticks": 860,
          "time": 0.9953693750000001,
          "velocity": 0.2677165354330709
        },
        {
          "duration": 0.555555,
          "durationTicks": 480,
          "midi": 66,
          "name": "F#4",
          "ticks": 1020,
          "time": 1.180554375,
          "velocity": 0.2677165354330709
        },
        {
          "duration": 0.3703700000000003,
          "durationTicks": 320,
          "midi": 69,
          "name": "A4",
          "ticks": 1340,
          "time": 1.550924375,
          "velocity": 0.2677165354330709
        },
        {
          "duration": 0.5555549999999998,
          "durationTicks": 480,
          "midi": 74,
          "name": "D5",
          "ticks": 1500,
          "time": 1.736109375,
          "velocity": 0.2677165354330709
        },
        {
          "duration": 0.37036999999999987,
          "durationTicks": 320,
          "midi": 78,
          "name": "F#5",
          "ticks": 1820,
          "time": 2.106479375,
          "velocity": 0.2677165354330709
        },
        {
          "duration": 0.3703700000000003,
          "durationTicks": 320,
          "midi": 79,
          "name": "G5",
          "ticks": 1980,
          "time": 2.291664375,
          "velocity": 0.2677165354330709
        },
        {
          "duration": 0.3703700000000003,
          "durationTicks": 320,
          "midi": 75,
          "name": "D#5",
          "ticks": 2460,
          "time": 2.847219375,
          "velocity": 0.2677165354330709
        },
        {
          "duration": 0.37036999999999987,
          "durationTicks": 320,
          "midi": 79,
          "name": "G5",
          "ticks": 2780,
          "time": 3.217589375,
          "velocity": 0.2677165354330709
        },
        {
          "duration": 0.3703700000000003,
          "durationTicks": 320,
          "midi": 81,
          "name": "A5",
          "ticks": 2940,
          "time": 3.402774375,
          "velocity": 0.2677165354330709
        },
        {
          "duration": 0.3703700000000003,
          "durationTicks": 320,
          "midi": 78,
          "name": "F#5",
          "ticks": 3420,
          "time": 3.958329375,
          "velocity": 0.2677165354330709
        },
        {
          "duration": 0.3703700000000003,
          "durationTicks": 320,
          "midi": 79,
          "name": "G5",
          "ticks": 3900,
          "time": 4.513884375,
          "velocity": 0.2677165354330709
        },
        {
          "duration": 0.3703700000000003,
          "durationTicks": 320,
          "midi": 75,
          "name": "D#5",
          "ticks": 4220,
          "time": 4.884254375,
          "velocity": 0.2677165354330709
        },
        {
          "duration": 0.3703700000000003,
          "durationTicks": 320,
          "midi": 72,
          "name": "C5",
          "ticks": 4380,
          "time": 5.069439375,
          "velocity": 0.2677165354330709
        },
        {
          "duration": 0.3703700000000003,
          "durationTicks": 320,
          "midi": 67,
          "name": "G4",
          "ticks": 4700,
          "time": 5.439809375,
          "velocity": 0.2677165354330709
        },
        {
          "duration": 0.3703700000000003,
          "durationTicks": 320,
          "midi": 66,
          "name": "F#4",
          "ticks": 4860,
          "time": 5.624994375,
          "velocity": 0.2677165354330709
        },
        {
          "duration": 0.3703700000000003,
          "durationTicks": 320,
          "midi": 69,
          "name": "A4",
          "ticks": 5180,
          "time": 5.995364375,
          "velocity": 0.2677165354330709
        },
        {
          "duration": 0.3703700000000003,
          "durationTicks": 320,
          "midi": 72,
          "name": "C5",
          "ticks": 5340,
          "time": 6.180549375,
          "velocity": 0.2677165354330709
        },
        {
          "duration": 0.3703700000000003,
          "durationTicks": 320,
          "midi": 69,
          "name": "A4",
          "ticks": 5660,
          "time": 6.550919375,
          "velocity": 0.2677165354330709
        },
        {
          "duration": 0.3703700000000003,
          "durationTicks": 320,
          "midi": 67,
          "name": "G4",
          "ticks": 5820,
          "time": 6.736104375,
          "velocity": 0.2677165354330709
        },
        {
          "duration": 0.3703700000000003,
          "durationTicks": 320,
          "midi": 71,
          "name": "B4",
          "ticks": 5820,
          "time": 6.736104375,
          "velocity": 0.2677165354330709
        },
        {
          "duration": 0.3703700000000003,
          "durationTicks": 320,
          "midi": 69,
          "name": "A4",
          "ticks": 6300,
          "time": 7.291659375,
          "velocity": 0.2677165354330709
        },
        {
          "duration": 0.3703700000000003,
          "durationTicks": 320,
          "midi": 72,
          "name": "C5",
          "ticks": 6300,
          "time": 7.291659375,
          "velocity": 0.2677165354330709
        },
        {
          "duration": 0.3703699999999994,
          "durationTicks": 320,
          "midi": 70,
          "name": "A#4",
          "ticks": 6780,
          "time": 7.847214375,
          "velocity": 0.2677165354330709
        },
        {
          "duration": 0.3703699999999994,
          "durationTicks": 320,
          "midi": 73,
          "name": "C#5",
          "ticks": 6780,
          "time": 7.847214375,
          "velocity": 0.2677165354330709
        },
        {
          "duration": 0.3703699999999994,
          "durationTicks": 320,
          "midi": 71,
          "name": "B4",
          "ticks": 7260,
          "time": 8.402769375,
          "velocity": 0.2677165354330709
        },
        {
          "duration": 0.3703699999999994,
          "durationTicks": 320,
          "midi": 74,
          "name": "D5",
          "ticks": 7260,
          "time": 8.402769375,
          "velocity": 0.2677165354330709
        },
        {
          "duration": 0.3703699999999994,
          "durationTicks": 320,
          "midi": 79,
          "name": "G5",
          "ticks": 7759,
          "time": 8.98031509375,
          "velocity": 0.2677165354330709
        },
        {
          "duration": 0.3703700000000012,
          "durationTicks": 320,
          "midi": 75,
          "name": "D#5",
          "ticks": 8068,
          "time": 9.337953625,
          "velocity": 0.2677165354330709
        },
        {
          "duration": 0.37036999999999765,
          "durationTicks": 320,
          "midi": 72,
          "name": "C5",
          "ticks": 8225,
          "time": 9.519666406250002,
          "velocity": 0.2677165354330709
        },
        {
          "duration": 0.37036999999999765,
          "durationTicks": 320,
          "midi": 67,
          "name": "G4",
          "ticks": 8542,
          "time": 9.886564187500001,
          "velocity": 0.2677165354330709
        },
        {
          "duration": 0.555555,
          "durationTicks": 480,
          "midi": 66,
          "name": "F#4",
          "ticks": 8707,
          "time": 10.077536218750001,
          "velocity": 0.2677165354330709
        },
        {
          "duration": 0.3703699999999994,
          "durationTicks": 320,
          "midi": 69,
          "name": "A4",
          "ticks": 9014,
          "time": 10.4328599375,
          "velocity": 0.2677165354330709
        },
        {
          "duration": 0.3703699999999994,
          "durationTicks": 320,
          "midi": 72,
          "name": "C5",
          "ticks": 9169,
          "time": 10.61225790625,
          "velocity": 0.2677165354330709
        },
        {
          "duration": 0.3703699999999994,
          "durationTicks": 320,
          "midi": 78,
          "name": "F#5",
          "ticks": 9462,
          "time": 10.9513779375,
          "velocity": 0.2677165354330709
        },
        {
          "duration": 0.3703700000000012,
          "durationTicks": 320,
          "midi": 79,
          "name": "G5",
          "ticks": 9644,
          "time": 11.162025875,
          "velocity": 0.2677165354330709
        },
        {
          "duration": 0.3703699999999994,
          "durationTicks": 320,
          "midi": 75,
          "name": "D#5",
          "ticks": 9958,
          "time": 11.525451437500001,
          "velocity": 0.2677165354330709
        },
        {
          "duration": 0.3703699999999994,
          "durationTicks": 320,
          "midi": 72,
          "name": "C5",
          "ticks": 10133,
          "time": 11.72799753125,
          "velocity": 0.2677165354330709
        },
        {
          "duration": 0.3703699999999994,
          "durationTicks": 320,
          "midi": 79,
          "name": "G5",
          "ticks": 10450,
          "time": 12.0948953125,
          "velocity": 0.2677165354330709
        },
        {
          "duration": 0.3703700000000012,
          "durationTicks": 320,
          "midi": 81,
          "name": "A5",
          "ticks": 10598,
          "time": 12.2661914375,
          "velocity": 0.2677165354330709
        },
        {
          "duration": 0.3703699999999994,
          "durationTicks": 320,
          "midi": 78,
          "name": "F#5",
          "ticks": 11095,
          "time": 12.84142234375,
          "velocity": 0.2677165354330709
        },
        {
          "duration": 0.3703700000000012,
          "durationTicks": 320,
          "midi": 79,
          "name": "G5",
          "ticks": 11580,
          "time": 13.402764375,
          "velocity": 0.2677165354330709
        },
        {
          "duration": 0.3703700000000012,
          "durationTicks": 320,
          "midi": 75,
          "name": "D#5",
          "ticks": 11939,
          "time": 13.818273218749999,
          "velocity": 0.2677165354330709
        },
        {
          "duration": 0.3703699999999994,
          "durationTicks": 320,
          "midi": 72,
          "name": "C5",
          "ticks": 12083,
          "time": 13.98493971875,
          "velocity": 0.2677165354330709
        },
        {
          "duration": 0.3703700000000012,
          "durationTicks": 320,
          "midi": 67,
          "name": "G4",
          "ticks": 12371,
          "time": 14.31827271875,
          "velocity": 0.2677165354330709
        },
        {
          "duration": 0.555555,
          "durationTicks": 480,
          "midi": 75,
          "name": "D#5",
          "ticks": 12540,
          "time": 14.513874375,
          "velocity": 0.2677165354330709
        },
        {
          "duration": 0.3703700000000012,
          "durationTicks": 320,
          "midi": 74,
          "name": "D5",
          "ticks": 13020,
          "time": 15.069429375,
          "velocity": 0.2677165354330709
        },
        {
          "duration": 0.3703700000000012,
          "durationTicks": 320,
          "midi": 72,
          "name": "C5",
          "ticks": 13500,
          "time": 15.624984375,
          "velocity": 0.2677165354330709
        }
      ]
    },
    {
      "channel": 0,
      "controlChanges": {
        "1": [
          {
            "number": 1,
            "ticks": 0,
            "time": 0,
            "value": 0
          }
        ],
        "7": [
          {
            "number": 7,
            "ticks": 0,
            "time": 0,
            "value": 1
          }
        ],
        "10": [
          {
            "number": 10,
            "ticks": 0,
            "time": 0,
            "value": 0.7401574803149606
          }
        ],
        "11": [
          {
            "number": 11,
            "ticks": 0,
            "time": 0,
            "value": 1
          }
        ]
      },
      "pitchBends": [],
      "instrument": {
        "family": "piano",
        "number": 0,
        "name": "acoustic grand piano"
      },
      "name": "Music Box R",
      "notes": [],
      "endOfTrackTicks": 13880
    },
    {
      "channel": 4,
      "controlChanges": {},
      "pitchBends": [],
      "instrument": {
        "family": "organ",
        "number": 16,
        "name": "drawbar organ"
      },
      "name": "",
      "notes": [
        {
          "duration": 0.37037,
          "durationTicks": 320,
          "midi": 79,
          "name": "G5",
          "ticks": 120,
          "time": 0.13888875,
          "velocity": 0.2125984251968504
        },
        {
          "duration": 0.37037,
          "durationTicks": 320,
          "midi": 75,
          "name": "D#5",
          "ticks": 440,
          "time": 0.50925875,
          "velocity": 0.2125984251968504
        },
        {
          "duration": 0.3703700000000001,
          "durationTicks": 320,
          "midi": 72,
          "name": "C5",
          "ticks": 600,
          "time": 0.69444375,
          "velocity": 0.2125984251968504
        },
        {
          "duration": 0.3703700000000001,
          "durationTicks": 320,
          "midi": 67,
          "name": "G4",
          "ticks": 920,
          "time": 1.0648137500000001,
          "velocity": 0.2125984251968504
        },
        {
          "duration": 0.555555,
          "durationTicks": 480,
          "midi": 66,
          "name": "F#4",
          "ticks": 1080,
          "time": 1.24999875,
          "velocity": 0.2125984251968504
        },
        {
          "duration": 0.3703700000000003,
          "durationTicks": 320,
          "midi": 69,
          "name": "A4",
          "ticks": 1400,
          "time": 1.62036875,
          "velocity": 0.2125984251968504
        },
        {
          "duration": 0.555555,
          "durationTicks": 480,
          "midi": 74,
          "name": "D5",
          "ticks": 1560,
          "time": 1.80555375,
          "velocity": 0.2125984251968504
        },
        {
          "duration": 0.37036999999999987,
          "durationTicks": 320,
          "midi": 78,
          "name": "F#5",
          "ticks": 1880,
          "time": 2.17592375,
          "velocity": 0.2125984251968504
        },
        {
          "duration": 0.3703700000000003,
          "durationTicks": 320,
          "midi": 79,
          "name": "G5",
          "ticks": 2040,
          "time": 2.36110875,
          "velocity": 0.2125984251968504
        },
        {
          "duration": 0.3703700000000003,
          "durationTicks": 320,
          "midi": 75,
          "name": "D#5",
          "ticks": 2520,
          "time": 2.91666375,
          "velocity": 0.2125984251968504
        },
        {
          "duration": 0.3703699999999994,
          "durationTicks": 320,
          "midi": 79,
          "name": "G5",
          "ticks": 2840,
          "time": 3.2870337500000004,
          "velocity": 0.2125984251968504
        },
        {
          "duration": 0.3703700000000003,
          "durationTicks": 320,
          "midi": 81,
          "name": "A5",
          "ticks": 3000,
          "time": 3.47221875,
          "velocity": 0.2125984251968504
        },
        {
          "duration": 0.3703700000000003,
          "durationTicks": 320,
          "midi": 78,
          "name": "F#5",
          "ticks": 3480,
          "time": 4.02777375,
          "velocity": 0.2125984251968504
        },
        {
          "duration": 0.3703700000000003,
          "durationTicks": 320,
          "midi": 79,
          "name": "G5",
          "ticks": 3960,
          "time": 4.58332875,
          "velocity": 0.2125984251968504
        },
        {
          "duration": 0.3703700000000003,
          "durationTicks": 320,
          "midi": 75,
          "name": "D#5",
          "ticks": 4280,
          "time": 4.95369875,
          "velocity": 0.2125984251968504
        },
        {
          "duration": 0.3703700000000003,
          "durationTicks": 320,
          "midi": 72,
          "name": "C5",
          "ticks": 4440,
          "time": 5.13888375,
          "velocity": 0.2125984251968504
        },
        {
          "duration": 0.3703700000000003,
          "durationTicks": 320,
          "midi": 67,
          "name": "G4",
          "ticks": 4760,
          "time": 5.50925375,
          "velocity": 0.2125984251968504
        },
        {
          "duration": 0.3703700000000003,
          "durationTicks": 320,
          "midi": 66,
          "name": "F#4",
          "ticks": 4920,
          "time": 5.69443875,
          "velocity": 0.2125984251968504
        },
        {
          "duration": 0.3703700000000003,
          "durationTicks": 320,
          "midi": 69,
          "name": "A4",
          "ticks": 5240,
          "time": 6.06480875,
          "velocity": 0.2125984251968504
        },
        {
          "duration": 0.3703700000000003,
          "durationTicks": 320,
          "midi": 72,
          "name": "C5",
          "ticks": 5400,
          "time": 6.24999375,
          "velocity": 0.2125984251968504
        },
        {
          "duration": 0.3703700000000003,
          "durationTicks": 320,
          "midi": 69,
          "name": "A4",
          "ticks": 5720,
          "time": 6.62036375,
          "velocity": 0.2125984251968504
        },
        {
          "duration": 0.3703700000000003,
          "durationTicks": 320,
          "midi": 67,
          "name": "G4",
          "ticks": 5880,
          "time": 6.80554875,
          "velocity": 0.2125984251968504
        },
        {
          "duration": 0.3703700000000003,
          "durationTicks": 320,
          "midi": 71,
          "name": "B4",
          "ticks": 5880,
          "time": 6.80554875,
          "velocity": 0.2125984251968504
        },
        {
          "duration": 0.3703700000000003,
          "durationTicks": 320,
          "midi": 69,
          "name": "A4",
          "ticks": 6360,
          "time": 7.36110375,
          "velocity": 0.2125984251968504
        },
        {
          "duration": 0.3703700000000003,
          "durationTicks": 320,
          "midi": 72,
          "name": "C5",
          "ticks": 6360,
          "time": 7.36110375,
          "velocity": 0.2125984251968504
        },
        {
          "duration": 0.3703699999999994,
          "durationTicks": 320,
          "midi": 70,
          "name": "A#4",
          "ticks": 6840,
          "time": 7.91665875,
          "velocity": 0.2125984251968504
        },
        {
          "duration": 0.3703699999999994,
          "durationTicks": 320,
          "midi": 73,
          "name": "C#5",
          "ticks": 6840,
          "time": 7.91665875,
          "velocity": 0.2125984251968504
        },
        {
          "duration": 0.3703699999999994,
          "durationTicks": 320,
          "midi": 71,
          "name": "B4",
          "ticks": 7320,
          "time": 8.47221375,
          "velocity": 0.2125984251968504
        },
        {
          "duration": 0.3703699999999994,
          "durationTicks": 320,
          "midi": 74,
          "name": "D5",
          "ticks": 7320,
          "time": 8.47221375,
          "velocity": 0.2125984251968504
        },
        {
          "duration": 0.3703699999999994,
          "durationTicks": 320,
          "midi": 79,
          "name": "G5",
          "ticks": 7819,
          "time": 9.04975946875,
          "velocity": 0.2125984251968504
        },
        {
          "duration": 0.3703700000000012,
          "durationTicks": 320,
          "midi": 75,
          "name": "D#5",
          "ticks": 8128,
          "time": 9.407398,
          "velocity": 0.2125984251968504
        },
        {
          "duration": 0.37036999999999765,
          "durationTicks": 320,
          "midi": 72,
          "name": "C5",
          "ticks": 8285,
          "time": 9.589110781250001,
          "velocity": 0.2125984251968504
        },
        {
          "duration": 0.3703699999999994,
          "durationTicks": 320,
          "midi": 67,
          "name": "G4",
          "ticks": 8602,
          "time": 9.956008562500001,
          "velocity": 0.2125984251968504
        },
        {
          "duration": 0.555555,
          "durationTicks": 480,
          "midi": 66,
          "name": "F#4",
          "ticks": 8767,
          "time": 10.146980593750001,
          "velocity": 0.2125984251968504
        },
        {
          "duration": 0.3703700000000012,
          "durationTicks": 320,
          "midi": 69,
          "name": "A4",
          "ticks": 9074,
          "time": 10.5023043125,
          "velocity": 0.2125984251968504
        },
        {
          "duration": 0.3703699999999994,
          "durationTicks": 320,
          "midi": 72,
          "name": "C5",
          "ticks": 9229,
          "time": 10.68170228125,
          "velocity": 0.2125984251968504
        },
        {
          "duration": 0.3703699999999994,
          "durationTicks": 320,
          "midi": 78,
          "name": "F#5",
          "ticks": 9522,
          "time": 11.0208223125,
          "velocity": 0.2125984251968504
        },
        {
          "duration": 0.3703700000000012,
          "durationTicks": 320,
          "midi": 79,
          "name": "G5",
          "ticks": 9704,
          "time": 11.23147025,
          "velocity": 0.2125984251968504
        },
        {
          "duration": 0.3703700000000012,
          "durationTicks": 320,
          "midi": 75,
          "name": "D#5",
          "ticks": 10018,
          "time": 11.5948958125,
          "velocity": 0.2125984251968504
        },
        {
          "duration": 0.3703699999999994,
          "durationTicks": 320,
          "midi": 72,
          "name": "C5",
          "ticks": 10193,
          "time": 11.79744190625,
          "velocity": 0.2125984251968504
        },
        {
          "duration": 0.3703700000000012,
          "durationTicks": 320,
          "midi": 79,
          "name": "G5",
          "ticks": 10510,
          "time": 12.1643396875,
          "velocity": 0.2125984251968504
        },
        {
          "duration": 0.3703700000000012,
          "durationTicks": 320,
          "midi": 81,
          "name": "A5",
          "ticks": 10658,
          "time": 12.3356358125,
          "velocity": 0.2125984251968504
        },
        {
          "duration": 0.3703699999999994,
          "durationTicks": 320,
          "midi": 78,
          "name": "F#5",
          "ticks": 11155,
          "time": 12.91086671875,
          "velocity": 0.2125984251968504
        },
        {
          "duration": 0.3703700000000012,
          "durationTicks": 320,
          "midi": 79,
          "name": "G5",
          "ticks": 11640,
          "time": 13.47220875,
          "velocity": 0.2125984251968504
        },
        {
          "duration": 0.3703700000000012,
          "durationTicks": 320,
          "midi": 75,
          "name": "D#5",
          "ticks": 11999,
          "time": 13.887717593749999,
          "velocity": 0.2125984251968504
        },
        {
          "duration": 0.3703699999999994,
          "durationTicks": 320,
          "midi": 72,
          "name": "C5",
          "ticks": 12143,
          "time": 14.05438409375,
          "velocity": 0.2125984251968504
        },
        {
          "duration": 0.3703700000000012,
          "durationTicks": 320,
          "midi": 67,
          "name": "G4",
          "ticks": 12431,
          "time": 14.38771709375,
          "velocity": 0.2125984251968504
        },
        {
          "duration": 0.555555,
          "durationTicks": 480,
          "midi": 75,
          "name": "D#5",
          "ticks": 12600,
          "time": 14.58331875,
          "velocity": 0.2125984251968504
        },
        {
          "duration": 0.3703700000000012,
          "durationTicks": 320,
          "midi": 74,
          "name": "D5",
          "ticks": 13080,
          "time": 15.13887375,
          "velocity": 0.2125984251968504
        },
        {
          "duration": 0.3703700000000012,
          "durationTicks": 320,
          "midi": 72,
          "name": "C5",
          "ticks": 13560,
          "time": 15.69442875,
          "velocity": 0.2125984251968504
        }
      ]
    },
    {
      "channel": 0,
      "controlChanges": {
        "1": [
          {
            "number": 1,
            "ticks": 0,
            "time": 0,
            "value": 0
          }
        ],
        "7": [
          {
            "number": 7,
            "ticks": 0,
            "time": 0,
            "value": 1
          }
        ],
        "10": [
          {
            "number": 10,
            "ticks": 0,
            "time": 0,
            "value": 0.5039370078740157
          }
        ],
        "11": [
          {
            "number": 11,
            "ticks": 0,
            "time": 0,
            "value": 1
          }
        ]
      },
      "pitchBends": [],
      "instrument": {
        "family": "piano",
        "number": 0,
        "name": "acoustic grand piano"
      },
      "name": "Clarinet",
      "notes": [],
      "endOfTrackTicks": 28880
    },
    {
      "channel": 5,
      "controlChanges": {},
      "pitchBends": [],
      "instrument": {
        "family": "reed",
        "number": 71,
        "name": "clarinet"
      },
      "name": "",
      "notes": [
        {
          "duration": 0.37036999999999765,
          "durationTicks": 320,
          "midi": 60,
          "name": "C4",
          "ticks": 14880,
          "time": 17.222205000000002,
          "velocity": 0.6062992125984252
        },
        {
          "duration": 0.04629625000000104,
          "durationTicks": 40,
          "midi": 62,
          "name": "D4",
          "ticks": 15200,
          "time": 17.592575,
          "velocity": 0.4645669291338583
        },
        {
          "duration": 0.046296249999997485,
          "durationTicks": 40,
          "midi": 63,
          "name": "D#4",
          "ticks": 15240,
          "time": 17.63887125,
          "velocity": 0.5039370078740157
        },
        {
          "duration": 0.04629625000000104,
          "durationTicks": 40,
          "midi": 65,
          "name": "F4",
          "ticks": 15280,
          "time": 17.6851675,
          "velocity": 0.3858267716535433
        },
        {
          "duration": 0.04629625000000104,
          "durationTicks": 40,
          "midi": 66,
          "name": "F#4",
          "ticks": 15320,
          "time": 17.73146375,
          "velocity": 0.3858267716535433
        },
        {
          "duration": 0.08796287499999877,
          "durationTicks": 76,
          "midi": 67,
          "name": "G4",
          "ticks": 15360,
          "time": 17.77776,
          "velocity": 0.6299212598425197
        },
        {
          "duration": 0.07986103125000099,
          "durationTicks": 69,
          "midi": 63,
          "name": "D#4",
          "ticks": 15840,
          "time": 18.333315,
          "velocity": 0.6692913385826772
        },
        {
          "duration": 0.07754621875000112,
          "durationTicks": 67,
          "midi": 66,
          "name": "F#4",
          "ticks": 16320,
          "time": 18.88887,
          "velocity": 0.7401574803149606
        },
        {
          "duration": 0.06944437499999978,
          "durationTicks": 60,
          "midi": 62,
          "name": "D4",
          "ticks": 16800,
          "time": 19.444425000000003,
          "velocity": 0.5275590551181102
        },
        {
          "duration": 0.10879618749999764,
          "durationTicks": 94,
          "midi": 66,
          "name": "F#4",
          "ticks": 17120,
          "time": 19.814795,
          "velocity": 0.5669291338582677
        },
        {
          "duration": 0.08564806250000245,
          "durationTicks": 74,
          "midi": 67,
          "name": "G4",
          "ticks": 17280,
          "time": 19.99998,
          "velocity": 0.6299212598425197
        },
        {
          "duration": 0.0671295624999999,
          "durationTicks": 58,
          "midi": 63,
          "name": "D#4",
          "ticks": 17760,
          "time": 20.555535,
          "velocity": 0.5511811023622047
        },
        {
          "duration": 0.09490731250000195,
          "durationTicks": 82,
          "midi": 69,
          "name": "A4",
          "ticks": 18240,
          "time": 21.11109,
          "velocity": 0.6614173228346457
        },
        {
          "duration": 0.08101843749999915,
          "durationTicks": 70,
          "midi": 66,
          "name": "F#4",
          "ticks": 18720,
          "time": 21.666645000000003,
          "velocity": 0.6535433070866141
        },
        {
          "duration": 0.08333324999999903,
          "durationTicks": 72,
          "midi": 67,
          "name": "G4",
          "ticks": 19200,
          "time": 22.2222,
          "velocity": 0.6692913385826772
        },
        {
          "duration": 0.05671290625000225,
          "durationTicks": 49,
          "midi": 63,
          "name": "D#4",
          "ticks": 19680,
          "time": 22.777755,
          "velocity": 0.6850393700787402
        },
        {
          "duration": 0.07407399999999953,
          "durationTicks": 64,
          "midi": 66,
          "name": "F#4",
          "ticks": 20160,
          "time": 23.33331,
          "velocity": 0.7559055118110236
        },
        {
          "duration": 0.07986103124999744,
          "durationTicks": 69,
          "midi": 62,
          "name": "D4",
          "ticks": 20640,
          "time": 23.888865000000003,
          "velocity": 0.6456692913385826
        },
        {
          "duration": 0.0902776875000022,
          "durationTicks": 78,
          "midi": 59,
          "name": "B3",
          "ticks": 21120,
          "time": 24.44442,
          "velocity": 0.7086614173228346
        },
        {
          "duration": 0.07870362499999928,
          "durationTicks": 68,
          "midi": 59,
          "name": "B3",
          "ticks": 21440,
          "time": 24.81479,
          "velocity": 0.6456692913385826
        },
        {
          "duration": 0.07870362500000283,
          "durationTicks": 68,
          "midi": 60,
          "name": "C4",
          "ticks": 21600,
          "time": 24.999975,
          "velocity": 0.6456692913385826
        },
        {
          "duration": 0.08449065624999719,
          "durationTicks": 73,
          "midi": 61,
          "name": "C#4",
          "ticks": 22080,
          "time": 25.55553,
          "velocity": 0.49606299212598426
        },
        {
          "duration": 0.08449065624999719,
          "durationTicks": 73,
          "midi": 62,
          "name": "D4",
          "ticks": 22560,
          "time": 26.111085000000003,
          "velocity": 0.49606299212598426
        },
        {
          "duration": 0.09259249999999852,
          "durationTicks": 80,
          "midi": 67,
          "name": "G4",
          "ticks": 23040,
          "time": 26.66664,
          "velocity": 0.6692913385826772
        },
        {
          "duration": 0.08449065625000074,
          "durationTicks": 73,
          "midi": 63,
          "name": "D#4",
          "ticks": 23520,
          "time": 27.222195,
          "velocity": 0.7007874015748031
        },
        {
          "duration": 0.08449065625000074,
          "durationTicks": 73,
          "midi": 67,
          "name": "G4",
          "ticks": 23840,
          "time": 27.592565,
          "velocity": 0.5118110236220472
        },
        {
          "duration": 0.08333324999999903,
          "durationTicks": 72,
          "midi": 66,
          "name": "F#4",
          "ticks": 24000,
          "time": 27.77775,
          "velocity": 0.7244094488188977
        },
        {
          "duration": 0.06944437499999978,
          "durationTicks": 60,
          "midi": 62,
          "name": "D4",
          "ticks": 24480,
          "time": 28.333305000000003,
          "velocity": 0.5275590551181102
        },
        {
          "duration": 0.08564806250000245,
          "durationTicks": 74,
          "midi": 67,
          "name": "G4",
          "ticks": 24960,
          "time": 28.88886,
          "velocity": 0.6299212598425197
        },
        {
          "duration": 0.0671295624999999,
          "durationTicks": 58,
          "midi": 63,
          "name": "D#4",
          "ticks": 25440,
          "time": 29.444415,
          "velocity": 0.5511811023622047
        },
        {
          "duration": 0.09722212500000182,
          "durationTicks": 84,
          "midi": 67,
          "name": "G4",
          "ticks": 25760,
          "time": 29.814785,
          "velocity": 0.5984251968503937
        },
        {
          "duration": 0.09490731250000195,
          "durationTicks": 82,
          "midi": 69,
          "name": "A4",
          "ticks": 25920,
          "time": 29.99997,
          "velocity": 0.6614173228346457
        },
        {
          "duration": 0.08101843749999915,
          "durationTicks": 70,
          "midi": 66,
          "name": "F#4",
          "ticks": 26400,
          "time": 30.555525000000003,
          "velocity": 0.6535433070866141
        },
        {
          "duration": 0.08333324999999903,
          "durationTicks": 72,
          "midi": 67,
          "name": "G4",
          "ticks": 26880,
          "time": 31.11108,
          "velocity": 0.6692913385826772
        },
        {
          "duration": 0.09259250000000208,
          "durationTicks": 80,
          "midi": 63,
          "name": "D#4",
          "ticks": 27360,
          "time": 31.666635,
          "velocity": 0.6850393700787402
        },
        {
          "duration": 0.18518499999999705,
          "durationTicks": 160,
          "midi": 60,
          "name": "C4",
          "ticks": 27680,
          "time": 32.037005,
          "velocity": 0.5984251968503937
        },
        {
          "duration": 0.09259250000000208,
          "durationTicks": 80,
          "midi": 63,
          "name": "D#4",
          "ticks": 27840,
          "time": 32.22219,
          "velocity": 0.6220472440944882
        },
        {
          "duration": 0.09259249999999497,
          "durationTicks": 80,
          "midi": 62,
          "name": "D4",
          "ticks": 28320,
          "time": 32.777745,
          "velocity": 0.6456692913385826
        },
        {
          "duration": 0.09259250000000208,
          "durationTicks": 80,
          "midi": 60,
          "name": "C4",
          "ticks": 28800,
          "time": 33.3333,
          "velocity": 0.6456692913385826
        }
      ]
    },
    {
      "channel": 0,
      "controlChanges": {
        "1": [
          {
            "number": 1,
            "ticks": 0,
            "time": 0,
            "value": 0
          }
        ],
        "7": [
          {
            "number": 7,
            "ticks": 0,
            "time": 0,
            "value": 1
          }
        ],
        "10": [
          {
            "number": 10,
            "ticks": 0,
            "time": 0,
            "value": 0.5039370078740157
          }
        ],
        "11": [
          {
            "number": 11,
            "ticks": 0,
            "time": 0,
            "value": 1
          }
        ]
      },
      "pitchBends": [],
      "instrument": {
        "family": "piano",
        "number": 0,
        "name": "acoustic grand piano"
      },
      "name": "Dah",
      "notes": [],
      "endOfTrackTicks": 28920
    },
    {
      "channel": 6,
      "controlChanges": {},
      "pitchBends": [],
      "instrument": {
        "family": "chromatic percussion",
        "number": 14,
        "name": "tubular bells"
      },
      "name": "",
      "notes": [
        {
          "duration": 0.13888874999999956,
          "durationTicks": 120,
          "midi": 67,
          "name": "G4",
          "ticks": 15360,
          "time": 17.77776,
          "velocity": 0.7874015748031497
        },
        {
          "duration": 0.1851850000000006,
          "durationTicks": 160,
          "midi": 63,
          "name": "D#4",
          "ticks": 15680,
          "time": 18.14813,
          "velocity": 0.7874015748031497
        },
        {
          "duration": 0.3703700000000012,
          "durationTicks": 320,
          "midi": 60,
          "name": "C4",
          "ticks": 15840,
          "time": 18.333315,
          "velocity": 0.7874015748031497
        },
        {
          "duration": 0.1851850000000006,
          "durationTicks": 160,
          "midi": 55,
          "name": "G3",
          "ticks": 16160,
          "time": 18.703685,
          "velocity": 0.7874015748031497
        },
        {
          "duration": 0.13888874999999956,
          "durationTicks": 120,
          "midi": 54,
          "name": "F#3",
          "ticks": 16320,
          "time": 18.88887,
          "velocity": 0.7874015748031497
        },
        {
          "duration": 0.18518500000000415,
          "durationTicks": 160,
          "midi": 57,
          "name": "A3",
          "ticks": 16640,
          "time": 19.25924,
          "velocity": 0.7874015748031497
        },
        {
          "duration": 0.37036999999999765,
          "durationTicks": 320,
          "midi": 62,
          "name": "D4",
          "ticks": 16800,
          "time": 19.444425000000003,
          "velocity": 0.7874015748031497
        },
        {
          "duration": 0.1851850000000006,
          "durationTicks": 160,
          "midi": 66,
          "name": "F#4",
          "ticks": 17120,
          "time": 19.814795,
          "velocity": 0.7874015748031497
        },
        {
          "duration": 0.13888874999999956,
          "durationTicks": 120,
          "midi": 67,
          "name": "G4",
          "ticks": 17280,
          "time": 19.99998,
          "velocity": 0.7874015748031497
        },
        {
          "duration": 0.13888875000000311,
          "durationTicks": 120,
          "midi": 63,
          "name": "D#4",
          "ticks": 17760,
          "time": 20.555535,
          "velocity": 0.7874015748031497
        },
        {
          "duration": 0.1851850000000006,
          "durationTicks": 160,
          "midi": 67,
          "name": "G4",
          "ticks": 18080,
          "time": 20.925905,
          "velocity": 0.7874015748031497
        },
        {
          "duration": 0.13888874999999956,
          "durationTicks": 120,
          "midi": 69,
          "name": "A4",
          "ticks": 18240,
          "time": 21.11109,
          "velocity": 0.7874015748031497
        },
        {
          "duration": 0.13888874999999956,
          "durationTicks": 120,
          "midi": 66,
          "name": "F#4",
          "ticks": 18720,
          "time": 21.666645000000003,
          "velocity": 0.7874015748031497
        },
        {
          "duration": 0.13888874999999956,
          "durationTicks": 120,
          "midi": 67,
          "name": "G4",
          "ticks": 19200,
          "time": 22.2222,
          "velocity": 0.7874015748031497
        },
        {
          "duration": 0.1851850000000006,
          "durationTicks": 160,
          "midi": 63,
          "name": "D#4",
          "ticks": 19520,
          "time": 22.59257,
          "velocity": 0.7874015748031497
        },
        {
          "duration": 0.3703700000000012,
          "durationTicks": 320,
          "midi": 60,
          "name": "C4",
          "ticks": 19680,
          "time": 22.777755,
          "velocity": 0.7874015748031497
        },
        {
          "duration": 0.1851850000000006,
          "durationTicks": 160,
          "midi": 55,
          "name": "G3",
          "ticks": 20000,
          "time": 23.148125,
          "velocity": 0.7874015748031497
        },
        {
          "duration": 0.13888874999999956,
          "durationTicks": 120,
          "midi": 54,
          "name": "F#3",
          "ticks": 20160,
          "time": 23.33331,
          "velocity": 0.7874015748031497
        },
        {
          "duration": 0.18518500000000415,
          "durationTicks": 160,
          "midi": 57,
          "name": "A3",
          "ticks": 20480,
          "time": 23.70368,
          "velocity": 0.7874015748031497
        },
        {
          "duration": 0.37036999999999765,
          "durationTicks": 320,
          "midi": 60,
          "name": "C4",
          "ticks": 20640,
          "time": 23.888865000000003,
          "velocity": 0.7874015748031497
        },
        {
          "duration": 0.1851850000000006,
          "durationTicks": 160,
          "midi": 57,
          "name": "A3",
          "ticks": 20960,
          "time": 24.259235,
          "velocity": 0.7874015748031497
        },
        {
          "duration": 0.13888874999999956,
          "durationTicks": 120,
          "midi": 55,
          "name": "G3",
          "ticks": 21120,
          "time": 24.44442,
          "velocity": 0.7874015748031497
        },
        {
          "duration": 0.13888874999999956,
          "durationTicks": 120,
          "midi": 59,
          "name": "B3",
          "ticks": 21120,
          "time": 24.44442,
          "velocity": 0.7874015748031497
        },
        {
          "duration": 0.1851850000000006,
          "durationTicks": 160,
          "midi": 55,
          "name": "G3",
          "ticks": 21440,
          "time": 24.81479,
          "velocity": 0.7874015748031497
        },
        {
          "duration": 0.1851850000000006,
          "durationTicks": 160,
          "midi": 59,
          "name": "B3",
          "ticks": 21440,
          "time": 24.81479,
          "velocity": 0.7874015748031497
        },
        {
          "duration": 0.13888875000000311,
          "durationTicks": 120,
          "midi": 57,
          "name": "A3",
          "ticks": 21600,
          "time": 24.999975,
          "velocity": 0.7874015748031497
        },
        {
          "duration": 0.13888875000000311,
          "durationTicks": 120,
          "midi": 60,
          "name": "C4",
          "ticks": 21600,
          "time": 24.999975,
          "velocity": 0.7874015748031497
        },
        {
          "duration": 0.13888874999999956,
          "durationTicks": 120,
          "midi": 58,
          "name": "A#3",
          "ticks": 22080,
          "time": 25.55553,
          "velocity": 0.7874015748031497
        },
        {
          "duration": 0.13888874999999956,
          "durationTicks": 120,
          "midi": 61,
          "name": "C#4",
          "ticks": 22080,
          "time": 25.55553,
          "velocity": 0.7874015748031497
        },
        {
          "duration": 0.13888874999999956,
          "durationTicks": 120,
          "midi": 59,
          "name": "B3",
          "ticks": 22560,
          "time": 26.111085000000003,
          "velocity": 0.7874015748031497
        },
        {
          "duration": 0.13888874999999956,
          "durationTicks": 120,
          "midi": 62,
          "name": "D4",
          "ticks": 22560,
          "time": 26.111085000000003,
          "velocity": 0.7874015748031497
        },
        {
          "duration": 0.13888874999999956,
          "durationTicks": 120,
          "midi": 67,
          "name": "G4",
          "ticks": 23040,
          "time": 26.66664,
          "velocity": 0.7874015748031497
        },
        {
          "duration": 0.1851850000000006,
          "durationTicks": 160,
          "midi": 63,
          "name": "D#4",
          "ticks": 23360,
          "time": 27.03701,
          "velocity": 0.7874015748031497
        },
        {
          "duration": 0.3703700000000012,
          "durationTicks": 320,
          "midi": 60,
          "name": "C4",
          "ticks": 23520,
          "time": 27.222195,
          "velocity": 0.7874015748031497
        },
        {
          "duration": 0.1851850000000006,
          "durationTicks": 160,
          "midi": 55,
          "name": "G3",
          "ticks": 23840,
          "time": 27.592565,
          "velocity": 0.7874015748031497
        },
        {
          "duration": 0.13888874999999956,
          "durationTicks": 120,
          "midi": 54,
          "name": "F#3",
          "ticks": 24000,
          "time": 27.77775,
          "velocity": 0.7874015748031497
        },
        {
          "duration": 0.18518500000000415,
          "durationTicks": 160,
          "midi": 57,
          "name": "A3",
          "ticks": 24320,
          "time": 28.14812,
          "velocity": 0.7874015748031497
        },
        {
          "duration": 0.37036999999999765,
          "durationTicks": 320,
          "midi": 60,
          "name": "C4",
          "ticks": 24480,
          "time": 28.333305000000003,
          "velocity": 0.7874015748031497
        },
        {
          "duration": 0.1851850000000006,
          "durationTicks": 160,
          "midi": 66,
          "name": "F#4",
          "ticks": 24800,
          "time": 28.703675,
          "velocity": 0.7874015748031497
        },
        {
          "duration": 0.13888874999999956,
          "durationTicks": 120,
          "midi": 67,
          "name": "G4",
          "ticks": 24960,
          "time": 28.88886,
          "velocity": 0.7874015748031497
        },
        {
          "duration": 0.1851850000000006,
          "durationTicks": 160,
          "midi": 63,
          "name": "D#4",
          "ticks": 25280,
          "time": 29.25923,
          "velocity": 0.7874015748031497
        },
        {
          "duration": 0.13888875000000311,
          "durationTicks": 120,
          "midi": 60,
          "name": "C4",
          "ticks": 25440,
          "time": 29.444415,
          "velocity": 0.7874015748031497
        },
        {
          "duration": 0.1851850000000006,
          "durationTicks": 160,
          "midi": 67,
          "name": "G4",
          "ticks": 25760,
          "time": 29.814785,
          "velocity": 0.7874015748031497
        },
        {
          "duration": 0.13888874999999956,
          "durationTicks": 120,
          "midi": 69,
          "name": "A4",
          "ticks": 25920,
          "time": 29.99997,
          "velocity": 0.7874015748031497
        },
        {
          "duration": 0.13888874999999956,
          "durationTicks": 120,
          "midi": 66,
          "name": "F#4",
          "ticks": 26400,
          "time": 30.555525000000003,
          "velocity": 0.7874015748031497
        },
        {
          "duration": 0.13888874999999956,
          "durationTicks": 120,
          "midi": 67,
          "name": "G4",
          "ticks": 26880,
          "time": 31.11108,
          "velocity": 0.7874015748031497
        },
        {
          "duration": 0.1851850000000006,
          "durationTicks": 160,
          "midi": 63,
          "name": "D#4",
          "ticks": 27200,
          "time": 31.48145,
          "velocity": 0.7874015748031497
        },
        {
          "duration": 0.3703700000000012,
          "durationTicks": 320,
          "midi": 60,
          "name": "C4",
          "ticks": 27360,
          "time": 31.666635,
          "velocity": 0.7874015748031497
        },
        {
          "duration": 0.18518499999999705,
          "durationTicks": 160,
          "midi": 55,
          "name": "G3",
          "ticks": 27680,
          "time": 32.037005,
          "velocity": 0.7874015748031497
        },
        {
          "duration": 0.13888875000000667,
          "durationTicks": 120,
          "midi": 57,
          "name": "A3",
          "ticks": 27840,
          "time": 32.22219,
          "velocity": 0.7874015748031497
        },
        {
          "duration": 0.13888875000000667,
          "durationTicks": 120,
          "midi": 63,
          "name": "D#4",
          "ticks": 27840,
          "time": 32.22219,
          "velocity": 0.7874015748031497
        },
        {
          "duration": 0.13888874999999956,
          "durationTicks": 120,
          "midi": 59,
          "name": "B3",
          "ticks": 28320,
          "time": 32.777745,
          "velocity": 0.7874015748031497
        },
        {
          "duration": 0.13888874999999956,
          "durationTicks": 120,
          "midi": 62,
          "name": "D4",
          "ticks": 28320,
          "time": 32.777745,
          "velocity": 0.7874015748031497
        },
        {
          "duration": 0.13888874999999956,
          "durationTicks": 120,
          "midi": 60,
          "name": "C4",
          "ticks": 28800,
          "time": 33.3333,
          "velocity": 0.7874015748031497
        }
      ]
    },
    {
      "channel": 0,
      "controlChanges": {
        "1": [
          {
            "number": 1,
            "ticks": 0,
            "time": 0,
            "value": 0
          }
        ],
        "7": [
          {
            "number": 7,
            "ticks": 0,
            "time": 0,
            "value": 1
          }
        ],
        "10": [
          {
            "number": 10,
            "ticks": 0,
            "time": 0,
            "value": 0.3464566929133858
          }
        ],
        "11": [
          {
            "number": 11,
            "ticks": 0,
            "time": 0,
            "value": 1
          }
        ]
      },
      "pitchBends": [],
      "instrument": {
        "family": "piano",
        "number": 0,
        "name": "acoustic grand piano"
      },
      "name": "Bassoon",
      "notes": [],
      "endOfTrackTicks": 28920
    },
    {
      "channel": 7,
      "controlChanges": {},
      "pitchBends": [],
      "instrument": {
        "family": "reed",
        "number": 70,
        "name": "bassoon"
      },
      "name": "",
      "notes": [
        {
          "duration": 0.13888874999999956,
          "durationTicks": 120,
          "midi": 36,
          "name": "C2",
          "ticks": 15360,
          "time": 17.77776,
          "velocity": 1
        },
        {
          "duration": 0.13888874999999956,
          "durationTicks": 120,
          "midi": 38,
          "name": "D2",
          "ticks": 16320,
          "time": 18.88887,
          "velocity": 1
        },
        {
          "duration": 0.13888874999999956,
          "durationTicks": 120,
          "midi": 36,
          "name": "C2",
          "ticks": 17280,
          "time": 19.99998,
          "velocity": 1
        },
        {
          "duration": 0.13888874999999956,
          "durationTicks": 120,
          "midi": 38,
          "name": "D2",
          "ticks": 18240,
          "time": 21.11109,
          "velocity": 1
        },
        {
          "duration": 0.13888874999999956,
          "durationTicks": 120,
          "midi": 36,
          "name": "C2",
          "ticks": 19200,
          "time": 22.2222,
          "velocity": 1
        },
        {
          "duration": 0.13888874999999956,
          "durationTicks": 120,
          "midi": 38,
          "name": "D2",
          "ticks": 20160,
          "time": 23.33331,
          "velocity": 1
        },
        {
          "duration": 0.13888874999999956,
          "durationTicks": 120,
          "midi": 31,
          "name": "G1",
          "ticks": 21120,
          "time": 24.44442,
          "velocity": 1
        },
        {
          "duration": 0.13888875000000311,
          "durationTicks": 120,
          "midi": 33,
          "name": "A1",
          "ticks": 21600,
          "time": 24.999975,
          "velocity": 1
        },
        {
          "duration": 0.13888874999999956,
          "durationTicks": 120,
          "midi": 34,
          "name": "A#1",
          "ticks": 22080,
          "time": 25.55553,
          "velocity": 1
        },
        {
          "duration": 0.13888874999999956,
          "durationTicks": 120,
          "midi": 35,
          "name": "B1",
          "ticks": 22560,
          "time": 26.111085000000003,
          "velocity": 1
        },
        {
          "duration": 0.13888874999999956,
          "durationTicks": 120,
          "midi": 36,
          "name": "C2",
          "ticks": 23040,
          "time": 26.66664,
          "velocity": 1
        },
        {
          "duration": 0.13888874999999956,
          "durationTicks": 120,
          "midi": 38,
          "name": "D2",
          "ticks": 24000,
          "time": 27.77775,
          "velocity": 1
        },
        {
          "duration": 0.13888874999999956,
          "durationTicks": 120,
          "midi": 36,
          "name": "C2",
          "ticks": 24960,
          "time": 28.88886,
          "velocity": 1
        },
        {
          "duration": 0.13888874999999956,
          "durationTicks": 120,
          "midi": 38,
          "name": "D2",
          "ticks": 25920,
          "time": 29.99997,
          "velocity": 1
        },
        {
          "duration": 0.13888874999999956,
          "durationTicks": 120,
          "midi": 36,
          "name": "C2",
          "ticks": 26880,
          "time": 31.11108,
          "velocity": 1
        },
        {
          "duration": 0.13888875000000667,
          "durationTicks": 120,
          "midi": 33,
          "name": "A1",
          "ticks": 27840,
          "time": 32.22219,
          "velocity": 1
        },
        {
          "duration": 0.13888874999999956,
          "durationTicks": 120,
          "midi": 35,
          "name": "B1",
          "ticks": 28320,
          "time": 32.777745,
          "velocity": 1
        },
        {
          "duration": 0.13888874999999956,
          "durationTicks": 120,
          "midi": 36,
          "name": "C2",
          "ticks": 28800,
          "time": 33.3333,
          "velocity": 1
        }
      ]
    },
    {
      "channel": 0,
      "controlChanges": {
        "1": [
          {
            "number": 1,
            "ticks": 0,
            "time": 0,
            "value": 0
          }
        ],
        "7": [
          {
            "number": 7,
            "ticks": 0,
            "time": 0,
            "value": 1
          }
        ],
        "10": [
          {
            "number": 10,
            "ticks": 0,
            "time": 0,
            "value": 0.3858267716535433
          }
        ],
        "11": [
          {
            "number": 11,
            "ticks": 0,
            "time": 0,
            "value": 1
          }
        ]
      },
      "pitchBends": [],
      "instrument": {
        "family": "piano",
        "number": 0,
        "name": "acoustic grand piano"
      },
      "name": "Strings Mid",
      "notes": [],
      "endOfTrackTicks": 28841
    },
    {
      "channel": 8,
      "controlChanges": {},
      "pitchBends": [],
      "instrument": {
        "family": "ensemble",
        "number": 48,
        "name": "string ensemble 1"
      },
      "name": "",
      "notes": [
        {
          "duration": 0.05555550000000409,
          "durationTicks": 48,
          "midi": 60,
          "name": "C4",
          "ticks": 15840,
          "time": 18.333315,
          "velocity": 0.6062992125984252
        },
        {
          "duration": 0.054398093750002374,
          "durationTicks": 47,
          "midi": 63,
          "name": "D#4",
          "ticks": 15840,
          "time": 18.333315,
          "velocity": 0.6062992125984252
        },
        {
          "duration": 0.05902771875000212,
          "durationTicks": 51,
          "midi": 67,
          "name": "G4",
          "ticks": 15840,
          "time": 18.333315,
          "velocity": 0.6062992125984252
        },
        {
          "duration": 0.05439809374999882,
          "durationTicks": 47,
          "midi": 60,
          "name": "C4",
          "ticks": 16800,
          "time": 19.444425000000003,
          "velocity": 0.6062992125984252
        },
        {
          "duration": 0.05208328124999895,
          "durationTicks": 45,
          "midi": 62,
          "name": "D4",
          "ticks": 16800,
          "time": 19.444425000000003,
          "velocity": 0.6062992125984252
        },
        {
          "duration": 0.06828696874999807,
          "durationTicks": 59,
          "midi": 66,
          "name": "F#4",
          "ticks": 16800,
          "time": 19.444425000000003,
          "velocity": 0.6062992125984252
        },
        {
          "duration": 0.0520832812500025,
          "durationTicks": 45,
          "midi": 60,
          "name": "C4",
          "ticks": 17760,
          "time": 20.555535,
          "velocity": 0.6062992125984252
        },
        {
          "duration": 0.05324068750000066,
          "durationTicks": 46,
          "midi": 63,
          "name": "D#4",
          "ticks": 17760,
          "time": 20.555535,
          "velocity": 0.6062992125984252
        },
        {
          "duration": 0.06365734375000187,
          "durationTicks": 55,
          "midi": 67,
          "name": "G4",
          "ticks": 17760,
          "time": 20.555535,
          "velocity": 0.6062992125984252
        },
        {
          "duration": 0.062499937499996605,
          "durationTicks": 54,
          "midi": 60,
          "name": "C4",
          "ticks": 18720,
          "time": 21.666645000000003,
          "velocity": 0.6062992125984252
        },
        {
          "duration": 0.07407399999999953,
          "durationTicks": 64,
          "midi": 66,
          "name": "F#4",
          "ticks": 18720,
          "time": 21.666645000000003,
          "velocity": 0.6062992125984252
        },
        {
          "duration": 0.05439809374999882,
          "durationTicks": 47,
          "midi": 69,
          "name": "A4",
          "ticks": 18720,
          "time": 21.666645000000003,
          "velocity": 0.6062992125984252
        },
        {
          "duration": 0.05555550000000409,
          "durationTicks": 48,
          "midi": 60,
          "name": "C4",
          "ticks": 19680,
          "time": 22.777755,
          "velocity": 0.6062992125984252
        },
        {
          "duration": 0.05324068750000066,
          "durationTicks": 46,
          "midi": 63,
          "name": "D#4",
          "ticks": 19680,
          "time": 22.777755,
          "velocity": 0.6062992125984252
        },
        {
          "duration": 0.061342531250002,
          "durationTicks": 53,
          "midi": 67,
          "name": "G4",
          "ticks": 19680,
          "time": 22.777755,
          "velocity": 0.6062992125984252
        },
        {
          "duration": 0.055555500000000535,
          "durationTicks": 48,
          "midi": 60,
          "name": "C4",
          "ticks": 20640,
          "time": 23.888865000000003,
          "velocity": 0.6062992125984252
        },
        {
          "duration": 0.055555500000000535,
          "durationTicks": 48,
          "midi": 62,
          "name": "D4",
          "ticks": 20640,
          "time": 23.888865000000003,
          "velocity": 0.6062992125984252
        },
        {
          "duration": 0.06944437499999978,
          "durationTicks": 60,
          "midi": 66,
          "name": "F#4",
          "ticks": 20640,
          "time": 23.888865000000003,
          "velocity": 0.6062992125984252
        },
        {
          "duration": 0.0671295624999999,
          "durationTicks": 58,
          "midi": 57,
          "name": "A3",
          "ticks": 21600,
          "time": 24.999975,
          "velocity": 0.6062992125984252
        },
        {
          "duration": 0.06828696875000162,
          "durationTicks": 59,
          "midi": 60,
          "name": "C4",
          "ticks": 21600,
          "time": 24.999975,
          "velocity": 0.6062992125984252
        },
        {
          "duration": 0.04976846874999907,
          "durationTicks": 43,
          "midi": 58,
          "name": "A#3",
          "ticks": 22080,
          "time": 25.55553,
          "velocity": 0.6062992125984252
        },
        {
          "duration": 0.04861106250000091,
          "durationTicks": 42,
          "midi": 61,
          "name": "C#4",
          "ticks": 22080,
          "time": 25.55553,
          "velocity": 0.6062992125984252
        },
        {
          "duration": 0.060185125000000284,
          "durationTicks": 52,
          "midi": 59,
          "name": "B3",
          "ticks": 22560,
          "time": 26.111085000000003,
          "velocity": 0.6062992125984252
        },
        {
          "duration": 0.05208328124999895,
          "durationTicks": 45,
          "midi": 62,
          "name": "D4",
          "ticks": 22560,
          "time": 26.111085000000003,
          "velocity": 0.6062992125984252
        },
        {
          "duration": 0.045138843749999324,
          "durationTicks": 39,
          "midi": 60,
          "name": "C4",
          "ticks": 23520,
          "time": 27.222195,
          "velocity": 0.6062992125984252
        },
        {
          "duration": 0.04745365625000275,
          "durationTicks": 41,
          "midi": 63,
          "name": "D#4",
          "ticks": 23520,
          "time": 27.222195,
          "velocity": 0.6062992125984252
        },
        {
          "duration": 0.05324068750000066,
          "durationTicks": 46,
          "midi": 67,
          "name": "G4",
          "ticks": 23520,
          "time": 27.222195,
          "velocity": 0.6062992125984252
        },
        {
          "duration": 0.04629625000000104,
          "durationTicks": 40,
          "midi": 60,
          "name": "C4",
          "ticks": 24480,
          "time": 28.333305000000003,
          "velocity": 0.6062992125984252
        },
        {
          "duration": 0.04398143749999761,
          "durationTicks": 38,
          "midi": 62,
          "name": "D4",
          "ticks": 24480,
          "time": 28.333305000000003,
          "velocity": 0.6062992125984252
        },
        {
          "duration": 0.060185125000000284,
          "durationTicks": 52,
          "midi": 66,
          "name": "F#4",
          "ticks": 24480,
          "time": 28.333305000000003,
          "velocity": 0.6062992125984252
        },
        {
          "duration": 0.04629625000000459,
          "durationTicks": 40,
          "midi": 60,
          "name": "C4",
          "ticks": 25440,
          "time": 29.444415,
          "velocity": 0.6062992125984252
        },
        {
          "duration": 0.042824031250003,
          "durationTicks": 37,
          "midi": 63,
          "name": "D#4",
          "ticks": 25440,
          "time": 29.444415,
          "velocity": 0.6062992125984252
        },
        {
          "duration": 0.05324068750000066,
          "durationTicks": 46,
          "midi": 67,
          "name": "G4",
          "ticks": 25440,
          "time": 29.444415,
          "velocity": 0.6062992125984252
        },
        {
          "duration": 0.04629625000000104,
          "durationTicks": 40,
          "midi": 60,
          "name": "C4",
          "ticks": 26400,
          "time": 30.555525000000003,
          "velocity": 0.6062992125984252
        },
        {
          "duration": 0.04976846874999552,
          "durationTicks": 43,
          "midi": 62,
          "name": "D4",
          "ticks": 26400,
          "time": 30.555525000000003,
          "velocity": 0.6062992125984252
        },
        {
          "duration": 0.06944437499999978,
          "durationTicks": 60,
          "midi": 66,
          "name": "F#4",
          "ticks": 26400,
          "time": 30.555525000000003,
          "velocity": 0.6062992125984252
        },
        {
          "duration": 0.06944437500000333,
          "durationTicks": 60,
          "midi": 55,
          "name": "G3",
          "ticks": 27360,
          "time": 31.666635,
          "velocity": 0.6062992125984252
        },
        {
          "duration": 0.060185125000003836,
          "durationTicks": 52,
          "midi": 60,
          "name": "C4",
          "ticks": 27360,
          "time": 31.666635,
          "velocity": 0.6062992125984252
        },
        {
          "duration": 0.06944437500000333,
          "durationTicks": 60,
          "midi": 60,
          "name": "C4",
          "ticks": 27840,
          "time": 32.22219,
          "velocity": 0.6062992125984252
        },
        {
          "duration": 0.060185125000003836,
          "durationTicks": 52,
          "midi": 63,
          "name": "D#4",
          "ticks": 27840,
          "time": 32.22219,
          "velocity": 0.6062992125984252
        },
        {
          "duration": 0.0671295624999999,
          "durationTicks": 58,
          "midi": 59,
          "name": "B3",
          "ticks": 28320,
          "time": 32.777745,
          "velocity": 0.6062992125984252
        },
        {
          "duration": 0.054398093750002374,
          "durationTicks": 47,
          "midi": 62,
          "name": "D4",
          "ticks": 28320,
          "time": 32.777745,
          "velocity": 0.6062992125984252
        },
        {
          "duration": 0.0474536562499992,
          "durationTicks": 41,
          "midi": 55,
          "name": "G3",
          "ticks": 28800,
          "time": 33.3333,
          "velocity": 0.6062992125984252
        },
        {
          "duration": 0.0474536562499992,
          "durationTicks": 41,
          "midi": 60,
          "name": "C4",
          "ticks": 28800,
          "time": 33.3333,
          "velocity": 0.6062992125984252
        }
      ]
    },
    {
      "channel": 9,
      "controlChanges": {
        "1": [
          {
            "number": 1,
            "ticks": 0,
            "time": 0,
            "value": 0
          }
        ],
        "7": [
          {
            "number": 7,
            "ticks": 0,
            "time": 0,
            "value": 1
          }
        ],
        "10": [
          {
            "number": 10,
            "ticks": 0,
            "time": 0,
            "value": 0.5039370078740157
          }
        ],
        "11": [
          {
            "number": 11,
            "ticks": 0,
            "time": 0,
            "value": 1
          }
        ]
      },
      "pitchBends": [],
      "instrument": {
        "family": "drums",
        "number": 0,
        "name": "standard kit"
      },
      "name": "Guiro",
      "notes": [
        {
          "duration": 0.555555,
          "durationTicks": 480,
          "midi": 55,
          "name": "G3",
          "ticks": 480,
          "time": 0.555555,
          "velocity": 0.7874015748031497
        },
        {
          "duration": 0.555555,
          "durationTicks": 480,
          "midi": 55,
          "name": "G3",
          "ticks": 1440,
          "time": 1.666665,
          "velocity": 0.7874015748031497
        },
        {
          "duration": 0.555555,
          "durationTicks": 480,
          "midi": 55,
          "name": "G3",
          "ticks": 2400,
          "time": 2.777775,
          "velocity": 0.7874015748031497
        },
        {
          "duration": 0.555555,
          "durationTicks": 480,
          "midi": 55,
          "name": "G3",
          "ticks": 3360,
          "time": 3.888885,
          "velocity": 0.7874015748031497
        },
        {
          "duration": 0.555555,
          "durationTicks": 480,
          "midi": 55,
          "name": "G3",
          "ticks": 4320,
          "time": 4.999995,
          "velocity": 0.7874015748031497
        },
        {
          "duration": 0.555555,
          "durationTicks": 480,
          "midi": 55,
          "name": "G3",
          "ticks": 5280,
          "time": 6.111105,
          "velocity": 0.7874015748031497
        },
        {
          "duration": 0.555555,
          "durationTicks": 480,
          "midi": 55,
          "name": "G3",
          "ticks": 6240,
          "time": 7.222215,
          "velocity": 0.7874015748031497
        },
        {
          "duration": 0.555555,
          "durationTicks": 480,
          "midi": 55,
          "name": "G3",
          "ticks": 7200,
          "time": 8.333325,
          "velocity": 0.7874015748031497
        },
        {
          "duration": 0.555555,
          "durationTicks": 480,
          "midi": 55,
          "name": "G3",
          "ticks": 8160,
          "time": 9.444435,
          "velocity": 0.7874015748031497
        },
        {
          "duration": 0.555555,
          "durationTicks": 480,
          "midi": 55,
          "name": "G3",
          "ticks": 9120,
          "time": 10.555545,
          "velocity": 0.7874015748031497
        },
        {
          "duration": 0.555555,
          "durationTicks": 480,
          "midi": 55,
          "name": "G3",
          "ticks": 10080,
          "time": 11.666655,
          "velocity": 0.7874015748031497
        },
        {
          "duration": 0.555555,
          "durationTicks": 480,
          "midi": 55,
          "name": "G3",
          "ticks": 11040,
          "time": 12.777765,
          "velocity": 0.7874015748031497
        },
        {
          "duration": 0.555555,
          "durationTicks": 480,
          "midi": 55,
          "name": "G3",
          "ticks": 12000,
          "time": 13.888875,
          "velocity": 0.7874015748031497
        },
        {
          "duration": 0.555555,
          "durationTicks": 480,
          "midi": 55,
          "name": "G3",
          "ticks": 12960,
          "time": 14.999985,
          "velocity": 0.7874015748031497
        },
        {
          "duration": 0.5555550000000018,
          "durationTicks": 480,
          "midi": 55,
          "name": "G3",
          "ticks": 13920,
          "time": 16.111095,
          "velocity": 0.7874015748031497
        },
        {
          "duration": 0.504629125000001,
          "durationTicks": 436,
          "midi": 54,
          "name": "F#3",
          "ticks": 14850,
          "time": 17.1874828125,
          "velocity": 0.8661417322834646
        },
        {
          "duration": 0.5555550000000018,
          "durationTicks": 480,
          "midi": 55,
          "name": "G3",
          "ticks": 15840,
          "time": 18.333315,
          "velocity": 0.7874015748031497
        },
        {
          "duration": 0.5555549999999982,
          "durationTicks": 480,
          "midi": 55,
          "name": "G3",
          "ticks": 16800,
          "time": 19.444425000000003,
          "velocity": 0.7874015748031497
        },
        {
          "duration": 0.5555550000000018,
          "durationTicks": 480,
          "midi": 55,
          "name": "G3",
          "ticks": 17760,
          "time": 20.555535,
          "velocity": 0.7874015748031497
        },
        {
          "duration": 0.5555549999999982,
          "durationTicks": 480,
          "midi": 55,
          "name": "G3",
          "ticks": 18720,
          "time": 21.666645000000003,
          "velocity": 0.7874015748031497
        },
        {
          "duration": 0.5555550000000018,
          "durationTicks": 480,
          "midi": 55,
          "name": "G3",
          "ticks": 19680,
          "time": 22.777755,
          "velocity": 0.7874015748031497
        },
        {
          "duration": 0.5555549999999982,
          "durationTicks": 480,
          "midi": 55,
          "name": "G3",
          "ticks": 20640,
          "time": 23.888865000000003,
          "velocity": 0.7874015748031497
        },
        {
          "duration": 0.5555550000000018,
          "durationTicks": 480,
          "midi": 55,
          "name": "G3",
          "ticks": 21600,
          "time": 24.999975,
          "velocity": 0.7874015748031497
        },
        {
          "duration": 0.5555549999999982,
          "durationTicks": 480,
          "midi": 55,
          "name": "G3",
          "ticks": 22560,
          "time": 26.111085000000003,
          "velocity": 0.7874015748031497
        },
        {
          "duration": 0.5555550000000018,
          "durationTicks": 480,
          "midi": 55,
          "name": "G3",
          "ticks": 23520,
          "time": 27.222195,
          "velocity": 0.7874015748031497
        },
        {
          "duration": 0.5555549999999982,
          "durationTicks": 480,
          "midi": 55,
          "name": "G3",
          "ticks": 24480,
          "time": 28.333305000000003,
          "velocity": 0.7874015748031497
        },
        {
          "duration": 0.5555550000000018,
          "durationTicks": 480,
          "midi": 55,
          "name": "G3",
          "ticks": 25440,
          "time": 29.444415,
          "velocity": 0.7874015748031497
        },
        {
          "duration": 0.5555549999999982,
          "durationTicks": 480,
          "midi": 55,
          "name": "G3",
          "ticks": 26400,
          "time": 30.555525000000003,
          "velocity": 0.7874015748031497
        },
        {
          "duration": 0.5555549999999982,
          "durationTicks": 480,
          "midi": 55,
          "name": "G3",
          "ticks": 27360,
          "time": 31.666635,
          "velocity": 0.7874015748031497
        },
        {
          "duration": 0.5555549999999982,
          "durationTicks": 480,
          "midi": 55,
          "name": "G3",
          "ticks": 28320,
          "time": 32.777745,
          "velocity": 0.7874015748031497
        },
        {
          "duration": 0.5555550000000054,
          "durationTicks": 480,
          "midi": 55,
          "name": "G3",
          "ticks": 29280,
          "time": 33.888855,
          "velocity": 0.7874015748031497
        },
        {
          "duration": 0.5555549999999982,
          "durationTicks": 480,
          "midi": 54,
          "name": "F#3",
          "ticks": 30240,
          "time": 34.999965,
          "velocity": 0.8661417322834646
        }
      ],
      "endOfTrackTicks": 30720
    },
    {
      "channel": 10,
      "controlChanges": {
        "1": [
          {
            "number": 1,
            "ticks": 0,
            "time": 0,
            "value": 0
          }
        ],
        "7": [
          {
            "number": 7,
            "ticks": 0,
            "time": 0,
            "value": 1
          }
        ],
        "10": [
          {
            "number": 10,
            "ticks": 0,
            "time": 0,
            "value": 0.5826771653543307
          }
        ],
        "11": [
          {
            "number": 11,
            "ticks": 0,
            "time": 0,
            "value": 1
          }
        ]
      },
      "pitchBends": [],
      "instrument": {
        "family": "piano",
        "number": 0,
        "name": "acoustic grand piano"
      },
      "name": "Strings Low",
      "notes": [
        {
          "duration": 0.1851850000000006,
          "durationTicks": 160,
          "midi": 48,
          "name": "C3",
          "ticks": 15360,
          "time": 17.77776,
          "velocity": 0.7874015748031497
        },
        {
          "duration": 0.1851850000000006,
          "durationTicks": 160,
          "midi": 50,
          "name": "D3",
          "ticks": 16320,
          "time": 18.88887,
          "velocity": 0.7874015748031497
        },
        {
          "duration": 0.1851850000000006,
          "durationTicks": 160,
          "midi": 48,
          "name": "C3",
          "ticks": 17280,
          "time": 19.99998,
          "velocity": 0.7874015748031497
        },
        {
          "duration": 0.1851850000000006,
          "durationTicks": 160,
          "midi": 50,
          "name": "D3",
          "ticks": 18240,
          "time": 21.11109,
          "velocity": 0.7874015748031497
        },
        {
          "duration": 0.1851850000000006,
          "durationTicks": 160,
          "midi": 48,
          "name": "C3",
          "ticks": 19200,
          "time": 22.2222,
          "velocity": 0.7874015748031497
        },
        {
          "duration": 0.1851850000000006,
          "durationTicks": 160,
          "midi": 50,
          "name": "D3",
          "ticks": 20160,
          "time": 23.33331,
          "velocity": 0.7874015748031497
        },
        {
          "duration": 0.1851850000000006,
          "durationTicks": 160,
          "midi": 43,
          "name": "G2",
          "ticks": 21120,
          "time": 24.44442,
          "velocity": 0.7874015748031497
        },
        {
          "duration": 0.18518500000000415,
          "durationTicks": 160,
          "midi": 45,
          "name": "A2",
          "ticks": 21600,
          "time": 24.999975,
          "velocity": 0.7874015748031497
        },
        {
          "duration": 0.1851850000000006,
          "durationTicks": 160,
          "midi": 46,
          "name": "A#2",
          "ticks": 22080,
          "time": 25.55553,
          "velocity": 0.7874015748031497
        },
        {
          "duration": 0.1851850000000006,
          "durationTicks": 160,
          "midi": 47,
          "name": "B2",
          "ticks": 22560,
          "time": 26.111085000000003,
          "velocity": 0.7874015748031497
        },
        {
          "duration": 0.1851850000000006,
          "durationTicks": 160,
          "midi": 48,
          "name": "C3",
          "ticks": 23040,
          "time": 26.66664,
          "velocity": 0.7874015748031497
        },
        {
          "duration": 0.1851850000000006,
          "durationTicks": 160,
          "midi": 50,
          "name": "D3",
          "ticks": 24000,
          "time": 27.77775,
          "velocity": 0.7874015748031497
        },
        {
          "duration": 0.1851850000000006,
          "durationTicks": 160,
          "midi": 48,
          "name": "C3",
          "ticks": 24960,
          "time": 28.88886,
          "velocity": 0.7874015748031497
        },
        {
          "duration": 0.1851850000000006,
          "durationTicks": 160,
          "midi": 50,
          "name": "D3",
          "ticks": 25920,
          "time": 29.99997,
          "velocity": 0.7874015748031497
        },
        {
          "duration": 0.1851850000000006,
          "durationTicks": 160,
          "midi": 48,
          "name": "C3",
          "ticks": 26880,
          "time": 31.11108,
          "velocity": 0.7874015748031497
        },
        {
          "duration": 0.18518500000000415,
          "durationTicks": 160,
          "midi": 45,
          "name": "A2",
          "ticks": 27840,
          "time": 32.22219,
          "velocity": 0.7874015748031497
        },
        {
          "duration": 0.18518499999999705,
          "durationTicks": 160,
          "midi": 47,
          "name": "B2",
          "ticks": 28320,
          "time": 32.777745,
          "velocity": 0.7874015748031497
        },
        {
          "duration": 0.18518500000000415,
          "durationTicks": 160,
          "midi": 36,
          "name": "C2",
          "ticks": 28800,
          "time": 33.3333,
          "velocity": 0.7874015748031497
        }
      ],
      "endOfTrackTicks": 28960
    },
    {
      "channel": 0,
      "controlChanges": {
        "1": [
          {
            "number": 1,
            "ticks": 0,
            "time": 0,
            "value": 0
          }
        ],
        "7": [
          {
            "number": 7,
            "ticks": 0,
            "time": 0,
            "value": 1
          }
        ],
        "10": [
          {
            "number": 10,
            "ticks": 0,
            "time": 0,
            "value": 0.5039370078740157
          }
        ],
        "11": [
          {
            "number": 11,
            "ticks": 0,
            "time": 0,
            "value": 1
          }
        ]
      },
      "pitchBends": [],
      "instrument": {
        "family": "piano",
        "number": 0,
        "name": "acoustic grand piano"
      },
      "name": "Perc",
      "notes": [],
      "endOfTrackTicks": 30720
    },
    {
      "channel": 11,
      "controlChanges": {
        "6": [
          {
            "number": 6,
            "ticks": 0,
            "time": 0,
            "value": 0.015748031496062992
          }
        ],
        "100": [
          {
            "number": 100,
            "ticks": 0,
            "time": 0,
            "value": 0
          }
        ],
        "101": [
          {
            "number": 101,
            "ticks": 0,
            "time": 0,
            "value": 0
          }
        ]
      },
      "pitchBends": [],
      "instrument": {
        "family": "percussive",
        "number": 119,
        "name": "reverse cymbal"
      },
      "name": "",
      "notes": [
        {
          "duration": 0.37037,
          "durationTicks": 320,
          "midi": 62,
          "name": "D4",
          "ticks": 1,
          "time": 0.00115740625,
          "velocity": 0.889763779527559
        },
        {
          "duration": 0.18518500000000004,
          "durationTicks": 160,
          "midi": 61,
          "name": "C#4",
          "ticks": 320,
          "time": 0.37037,
          "velocity": 0.6771653543307087
        },
        {
          "duration": 0.3703700000000001,
          "durationTicks": 320,
          "midi": 63,
          "name": "D#4",
          "ticks": 480,
          "time": 0.555555,
          "velocity": 0.889763779527559
        },
        {
          "duration": 0.18518499999999993,
          "durationTicks": 160,
          "midi": 61,
          "name": "C#4",
          "ticks": 800,
          "time": 0.9259250000000001,
          "velocity": 0.6771653543307087
        },
        {
          "duration": 0.37036999999999987,
          "durationTicks": 320,
          "midi": 62,
          "name": "D4",
          "ticks": 960,
          "time": 1.11111,
          "velocity": 0.889763779527559
        },
        {
          "duration": 0.18518500000000016,
          "durationTicks": 160,
          "midi": 61,
          "name": "C#4",
          "ticks": 1280,
          "time": 1.48148,
          "velocity": 0.6771653543307087
        },
        {
          "duration": 0.37036999999999987,
          "durationTicks": 320,
          "midi": 63,
          "name": "D#4",
          "ticks": 1440,
          "time": 1.666665,
          "velocity": 0.889763779527559
        },
        {
          "duration": 0.18518500000000016,
          "durationTicks": 160,
          "midi": 61,
          "name": "C#4",
          "ticks": 1760,
          "time": 2.037035,
          "velocity": 0.6771653543307087
        },
        {
          "duration": 0.3703700000000003,
          "durationTicks": 320,
          "midi": 62,
          "name": "D4",
          "ticks": 1920,
          "time": 2.22222,
          "velocity": 0.889763779527559
        },
        {
          "duration": 0.1851849999999997,
          "durationTicks": 160,
          "midi": 61,
          "name": "C#4",
          "ticks": 2240,
          "time": 2.5925900000000004,
          "velocity": 0.6771653543307087
        },
        {
          "duration": 0.3703700000000003,
          "durationTicks": 320,
          "midi": 63,
          "name": "D#4",
          "ticks": 2399,
          "time": 2.77661759375,
          "velocity": 0.889763779527559
        },
        {
          "duration": 0.1851849999999997,
          "durationTicks": 160,
          "midi": 61,
          "name": "C#4",
          "ticks": 2720,
          "time": 3.1481450000000004,
          "velocity": 0.6771653543307087
        },
        {
          "duration": 0.3703700000000003,
          "durationTicks": 320,
          "midi": 62,
          "name": "D4",
          "ticks": 2880,
          "time": 3.33333,
          "velocity": 0.889763779527559
        },
        {
          "duration": 0.09259249999999941,
          "durationTicks": 80,
          "midi": 61,
          "name": "C#4",
          "ticks": 3200,
          "time": 3.7037000000000004,
          "velocity": 0.6771653543307087
        },
        {
          "duration": 0.0925925000000003,
          "durationTicks": 80,
          "midi": 61,
          "name": "C#4",
          "ticks": 3280,
          "time": 3.7962925,
          "velocity": 0.6771653543307087
        },
        {
          "duration": 0.3703700000000003,
          "durationTicks": 320,
          "midi": 63,
          "name": "D#4",
          "ticks": 3360,
          "time": 3.888885,
          "velocity": 0.889763779527559
        },
        {
          "duration": 0.1851849999999997,
          "durationTicks": 160,
          "midi": 61,
          "name": "C#4",
          "ticks": 3680,
          "time": 4.2592550000000005,
          "velocity": 0.6771653543307087
        },
        {
          "duration": 0.3703699999999994,
          "durationTicks": 320,
          "midi": 62,
          "name": "D4",
          "ticks": 3840,
          "time": 4.44444,
          "velocity": 0.889763779527559
        },
        {
          "duration": 0.1851850000000006,
          "durationTicks": 160,
          "midi": 61,
          "name": "C#4",
          "ticks": 4160,
          "time": 4.81481,
          "velocity": 0.6771653543307087
        },
        {
          "duration": 0.3703699999999994,
          "durationTicks": 320,
          "midi": 63,
          "name": "D#4",
          "ticks": 4320,
          "time": 4.999995,
          "velocity": 0.889763779527559
        },
        {
          "duration": 0.1851850000000006,
          "durationTicks": 160,
          "midi": 61,
          "name": "C#4",
          "ticks": 4640,
          "time": 5.370365,
          "velocity": 0.6771653543307087
        },
        {
          "duration": 0.3703699999999994,
          "durationTicks": 320,
          "midi": 62,
          "name": "D4",
          "ticks": 4800,
          "time": 5.55555,
          "velocity": 0.889763779527559
        },
        {
          "duration": 0.1851850000000006,
          "durationTicks": 160,
          "midi": 61,
          "name": "C#4",
          "ticks": 5120,
          "time": 5.92592,
          "velocity": 0.6771653543307087
        },
        {
          "duration": 0.3703699999999994,
          "durationTicks": 320,
          "midi": 63,
          "name": "D#4",
          "ticks": 5280,
          "time": 6.111105,
          "velocity": 0.889763779527559
        },
        {
          "duration": 0.1851850000000006,
          "durationTicks": 160,
          "midi": 61,
          "name": "C#4",
          "ticks": 5600,
          "time": 6.481475,
          "velocity": 0.6771653543307087
        },
        {
          "duration": 0.3703699999999994,
          "durationTicks": 320,
          "midi": 62,
          "name": "D4",
          "ticks": 5760,
          "time": 6.66666,
          "velocity": 0.889763779527559
        },
        {
          "duration": 0.1851850000000006,
          "durationTicks": 160,
          "midi": 61,
          "name": "C#4",
          "ticks": 6080,
          "time": 7.03703,
          "velocity": 0.6771653543307087
        },
        {
          "duration": 0.3703699999999994,
          "durationTicks": 320,
          "midi": 63,
          "name": "D#4",
          "ticks": 6239,
          "time": 7.22105759375,
          "velocity": 0.889763779527559
        },
        {
          "duration": 0.1851850000000006,
          "durationTicks": 160,
          "midi": 61,
          "name": "C#4",
          "ticks": 6560,
          "time": 7.592585,
          "velocity": 0.6771653543307087
        },
        {
          "duration": 0.3703699999999994,
          "durationTicks": 320,
          "midi": 62,
          "name": "D4",
          "ticks": 6720,
          "time": 7.77777,
          "velocity": 0.889763779527559
        },
        {
          "duration": 0.0925925000000003,
          "durationTicks": 80,
          "midi": 61,
          "name": "C#4",
          "ticks": 7040,
          "time": 8.14814,
          "velocity": 0.6771653543307087
        },
        {
          "duration": 0.0925925000000003,
          "durationTicks": 80,
          "midi": 61,
          "name": "C#4",
          "ticks": 7120,
          "time": 8.2407325,
          "velocity": 0.6771653543307087
        },
        {
          "duration": 0.3703699999999994,
          "durationTicks": 320,
          "midi": 63,
          "name": "D#4",
          "ticks": 7200,
          "time": 8.333325,
          "velocity": 0.889763779527559
        },
        {
          "duration": 0.1851850000000006,
          "durationTicks": 160,
          "midi": 61,
          "name": "C#4",
          "ticks": 7520,
          "time": 8.703695,
          "velocity": 0.6771653543307087
        },
        {
          "duration": 0.3703700000000012,
          "durationTicks": 320,
          "midi": 62,
          "name": "D4",
          "ticks": 7680,
          "time": 8.88888,
          "velocity": 0.889763779527559
        },
        {
          "duration": 0.18518499999999882,
          "durationTicks": 160,
          "midi": 61,
          "name": "C#4",
          "ticks": 8000,
          "time": 9.259250000000002,
          "velocity": 0.6771653543307087
        },
        {
          "duration": 0.3703700000000012,
          "durationTicks": 320,
          "midi": 63,
          "name": "D#4",
          "ticks": 8160,
          "time": 9.444435,
          "velocity": 0.889763779527559
        },
        {
          "duration": 0.18518499999999882,
          "durationTicks": 160,
          "midi": 61,
          "name": "C#4",
          "ticks": 8480,
          "time": 9.814805000000002,
          "velocity": 0.6771653543307087
        },
        {
          "duration": 0.3703700000000012,
          "durationTicks": 320,
          "midi": 62,
          "name": "D4",
          "ticks": 8640,
          "time": 9.99999,
          "velocity": 0.889763779527559
        },
        {
          "duration": 0.18518499999999882,
          "durationTicks": 160,
          "midi": 61,
          "name": "C#4",
          "ticks": 8960,
          "time": 10.370360000000002,
          "velocity": 0.6771653543307087
        },
        {
          "duration": 0.3703700000000012,
          "durationTicks": 320,
          "midi": 63,
          "name": "D#4",
          "ticks": 9120,
          "time": 10.555545,
          "velocity": 0.889763779527559
        },
        {
          "duration": 0.18518499999999882,
          "durationTicks": 160,
          "midi": 61,
          "name": "C#4",
          "ticks": 9440,
          "time": 10.925915000000002,
          "velocity": 0.6771653543307087
        },
        {
          "duration": 0.3703700000000012,
          "durationTicks": 320,
          "midi": 62,
          "name": "D4",
          "ticks": 9600,
          "time": 11.1111,
          "velocity": 0.889763779527559
        },
        {
          "duration": 0.18518499999999882,
          "durationTicks": 160,
          "midi": 61,
          "name": "C#4",
          "ticks": 9920,
          "time": 11.481470000000002,
          "velocity": 0.6771653543307087
        },
        {
          "duration": 0.3703700000000012,
          "durationTicks": 320,
          "midi": 63,
          "name": "D#4",
          "ticks": 10079,
          "time": 11.665497593749999,
          "velocity": 0.889763779527559
        },
        {
          "duration": 0.18518499999999882,
          "durationTicks": 160,
          "midi": 61,
          "name": "C#4",
          "ticks": 10400,
          "time": 12.037025000000002,
          "velocity": 0.6771653543307087
        },
        {
          "duration": 0.3703700000000012,
          "durationTicks": 320,
          "midi": 62,
          "name": "D4",
          "ticks": 10560,
          "time": 12.22221,
          "velocity": 0.889763779527559
        },
        {
          "duration": 0.09259249999999852,
          "durationTicks": 80,
          "midi": 61,
          "name": "C#4",
          "ticks": 10880,
          "time": 12.592580000000002,
          "velocity": 0.6771653543307087
        },
        {
          "duration": 0.0925925000000003,
          "durationTicks": 80,
          "midi": 61,
          "name": "C#4",
          "ticks": 10960,
          "time": 12.6851725,
          "velocity": 0.6771653543307087
        },
        {
          "duration": 0.3703700000000012,
          "durationTicks": 320,
          "midi": 63,
          "name": "D#4",
          "ticks": 11040,
          "time": 12.777765,
          "velocity": 0.889763779527559
        },
        {
          "duration": 0.18518499999999882,
          "durationTicks": 160,
          "midi": 61,
          "name": "C#4",
          "ticks": 11360,
          "time": 13.148135000000002,
          "velocity": 0.6771653543307087
        },
        {
          "duration": 0.3703700000000012,
          "durationTicks": 320,
          "midi": 62,
          "name": "D4",
          "ticks": 11520,
          "time": 13.33332,
          "velocity": 0.889763779527559
        },
        {
          "duration": 0.18518499999999882,
          "durationTicks": 160,
          "midi": 61,
          "name": "C#4",
          "ticks": 11840,
          "time": 13.703690000000002,
          "velocity": 0.6771653543307087
        },
        {
          "duration": 0.3703700000000012,
          "durationTicks": 320,
          "midi": 63,
          "name": "D#4",
          "ticks": 12000,
          "time": 13.888875,
          "velocity": 0.889763779527559
        },
        {
          "duration": 0.18518499999999882,
          "durationTicks": 160,
          "midi": 61,
          "name": "C#4",
          "ticks": 12320,
          "time": 14.259245000000002,
          "velocity": 0.6771653543307087
        },
        {
          "duration": 0.3703700000000012,
          "durationTicks": 320,
          "midi": 62,
          "name": "D4",
          "ticks": 12480,
          "time": 14.44443,
          "velocity": 0.889763779527559
        },
        {
          "duration": 0.18518499999999882,
          "durationTicks": 160,
          "midi": 61,
          "name": "C#4",
          "ticks": 12800,
          "time": 14.814800000000002,
          "velocity": 0.6771653543307087
        },
        {
          "duration": 0.3703700000000012,
          "durationTicks": 320,
          "midi": 63,
          "name": "D#4",
          "ticks": 12960,
          "time": 14.999985,
          "velocity": 0.889763779527559
        },
        {
          "duration": 0.18518499999999882,
          "durationTicks": 160,
          "midi": 61,
          "name": "C#4",
          "ticks": 13280,
          "time": 15.370355000000002,
          "velocity": 0.6771653543307087
        },
        {
          "duration": 0.3703700000000012,
          "durationTicks": 320,
          "midi": 62,
          "name": "D4",
          "ticks": 13440,
          "time": 15.55554,
          "velocity": 0.889763779527559
        },
        {
          "duration": 0.18518499999999705,
          "durationTicks": 160,
          "midi": 61,
          "name": "C#4",
          "ticks": 13760,
          "time": 15.925910000000002,
          "velocity": 0.6771653543307087
        },
        {
          "duration": 0.3703700000000012,
          "durationTicks": 320,
          "midi": 63,
          "name": "D#4",
          "ticks": 13919,
          "time": 16.10993759375,
          "velocity": 0.889763779527559
        },
        {
          "duration": 0.1851850000000006,
          "durationTicks": 160,
          "midi": 61,
          "name": "C#4",
          "ticks": 14240,
          "time": 16.481465,
          "velocity": 0.6771653543307087
        },
        {
          "duration": 0.3703700000000012,
          "durationTicks": 320,
          "midi": 62,
          "name": "D4",
          "ticks": 14400,
          "time": 16.66665,
          "velocity": 0.889763779527559
        },
        {
          "duration": 0.09259249999999852,
          "durationTicks": 80,
          "midi": 61,
          "name": "C#4",
          "ticks": 14720,
          "time": 17.037020000000002,
          "velocity": 0.6771653543307087
        },
        {
          "duration": 0.09259250000000208,
          "durationTicks": 80,
          "midi": 61,
          "name": "C#4",
          "ticks": 14800,
          "time": 17.1296125,
          "velocity": 0.6771653543307087
        },
        {
          "duration": 0.37036999999999765,
          "durationTicks": 320,
          "midi": 63,
          "name": "D#4",
          "ticks": 14880,
          "time": 17.222205000000002,
          "velocity": 0.889763779527559
        },
        {
          "duration": 0.1851850000000006,
          "durationTicks": 160,
          "midi": 61,
          "name": "C#4",
          "ticks": 15200,
          "time": 17.592575,
          "velocity": 0.6771653543307087
        },
        {
          "duration": 0.37036999999999765,
          "durationTicks": 320,
          "midi": 62,
          "name": "D4",
          "ticks": 15360,
          "time": 17.77776,
          "velocity": 0.889763779527559
        },
        {
          "duration": 0.1851850000000006,
          "durationTicks": 160,
          "midi": 61,
          "name": "C#4",
          "ticks": 15680,
          "time": 18.14813,
          "velocity": 0.6771653543307087
        },
        {
          "duration": 0.3703700000000012,
          "durationTicks": 320,
          "midi": 63,
          "name": "D#4",
          "ticks": 15840,
          "time": 18.333315,
          "velocity": 0.889763779527559
        },
        {
          "duration": 0.1851850000000006,
          "durationTicks": 160,
          "midi": 61,
          "name": "C#4",
          "ticks": 16160,
          "time": 18.703685,
          "velocity": 0.6771653543307087
        },
        {
          "duration": 0.37036999999999765,
          "durationTicks": 320,
          "midi": 62,
          "name": "D4",
          "ticks": 16320,
          "time": 18.88887,
          "velocity": 0.889763779527559
        },
        {
          "duration": 0.18518500000000415,
          "durationTicks": 160,
          "midi": 61,
          "name": "C#4",
          "ticks": 16640,
          "time": 19.25924,
          "velocity": 0.6771653543307087
        },
        {
          "duration": 0.37036999999999765,
          "durationTicks": 320,
          "midi": 63,
          "name": "D#4",
          "ticks": 16800,
          "time": 19.444425000000003,
          "velocity": 0.889763779527559
        },
        {
          "duration": 0.1851850000000006,
          "durationTicks": 160,
          "midi": 61,
          "name": "C#4",
          "ticks": 17120,
          "time": 19.814795,
          "velocity": 0.6771653543307087
        },
        {
          "duration": 0.37036999999999765,
          "durationTicks": 320,
          "midi": 62,
          "name": "D4",
          "ticks": 17280,
          "time": 19.99998,
          "velocity": 0.889763779527559
        },
        {
          "duration": 0.1851850000000006,
          "durationTicks": 160,
          "midi": 61,
          "name": "C#4",
          "ticks": 17600,
          "time": 20.37035,
          "velocity": 0.6771653543307087
        },
        {
          "duration": 0.3703700000000012,
          "durationTicks": 320,
          "midi": 63,
          "name": "D#4",
          "ticks": 17759,
          "time": 20.55437759375,
          "velocity": 0.889763779527559
        },
        {
          "duration": 0.1851850000000006,
          "durationTicks": 160,
          "midi": 61,
          "name": "C#4",
          "ticks": 18080,
          "time": 20.925905,
          "velocity": 0.6771653543307087
        },
        {
          "duration": 0.37036999999999765,
          "durationTicks": 320,
          "midi": 62,
          "name": "D4",
          "ticks": 18240,
          "time": 21.11109,
          "velocity": 0.889763779527559
        },
        {
          "duration": 0.09259250000000208,
          "durationTicks": 80,
          "midi": 61,
          "name": "C#4",
          "ticks": 18560,
          "time": 21.48146,
          "velocity": 0.6771653543307087
        },
        {
          "duration": 0.09259250000000208,
          "durationTicks": 80,
          "midi": 61,
          "name": "C#4",
          "ticks": 18640,
          "time": 21.5740525,
          "velocity": 0.6771653543307087
        },
        {
          "duration": 0.37036999999999765,
          "durationTicks": 320,
          "midi": 63,
          "name": "D#4",
          "ticks": 18720,
          "time": 21.666645000000003,
          "velocity": 0.889763779527559
        },
        {
          "duration": 0.1851850000000006,
          "durationTicks": 160,
          "midi": 61,
          "name": "C#4",
          "ticks": 19040,
          "time": 22.037015,
          "velocity": 0.6771653543307087
        },
        {
          "duration": 0.37036999999999765,
          "durationTicks": 320,
          "midi": 62,
          "name": "D4",
          "ticks": 19200,
          "time": 22.2222,
          "velocity": 0.889763779527559
        },
        {
          "duration": 0.1851850000000006,
          "durationTicks": 160,
          "midi": 61,
          "name": "C#4",
          "ticks": 19520,
          "time": 22.59257,
          "velocity": 0.6771653543307087
        },
        {
          "duration": 0.3703700000000012,
          "durationTicks": 320,
          "midi": 63,
          "name": "D#4",
          "ticks": 19680,
          "time": 22.777755,
          "velocity": 0.889763779527559
        },
        {
          "duration": 0.1851850000000006,
          "durationTicks": 160,
          "midi": 61,
          "name": "C#4",
          "ticks": 20000,
          "time": 23.148125,
          "velocity": 0.6771653543307087
        },
        {
          "duration": 0.37036999999999765,
          "durationTicks": 320,
          "midi": 62,
          "name": "D4",
          "ticks": 20160,
          "time": 23.33331,
          "velocity": 0.889763779527559
        },
        {
          "duration": 0.18518500000000415,
          "durationTicks": 160,
          "midi": 61,
          "name": "C#4",
          "ticks": 20480,
          "time": 23.70368,
          "velocity": 0.6771653543307087
        },
        {
          "duration": 0.37036999999999765,
          "durationTicks": 320,
          "midi": 63,
          "name": "D#4",
          "ticks": 20640,
          "time": 23.888865000000003,
          "velocity": 0.889763779527559
        },
        {
          "duration": 0.1851850000000006,
          "durationTicks": 160,
          "midi": 61,
          "name": "C#4",
          "ticks": 20960,
          "time": 24.259235,
          "velocity": 0.6771653543307087
        },
        {
          "duration": 0.37036999999999765,
          "durationTicks": 320,
          "midi": 62,
          "name": "D4",
          "ticks": 21120,
          "time": 24.44442,
          "velocity": 0.889763779527559
        },
        {
          "duration": 0.1851850000000006,
          "durationTicks": 160,
          "midi": 61,
          "name": "C#4",
          "ticks": 21440,
          "time": 24.81479,
          "velocity": 0.6771653543307087
        },
        {
          "duration": 0.3703700000000012,
          "durationTicks": 320,
          "midi": 63,
          "name": "D#4",
          "ticks": 21599,
          "time": 24.99881759375,
          "velocity": 0.889763779527559
        },
        {
          "duration": 0.1851850000000006,
          "durationTicks": 160,
          "midi": 61,
          "name": "C#4",
          "ticks": 21920,
          "time": 25.370345,
          "velocity": 0.6771653543307087
        },
        {
          "duration": 0.37036999999999765,
          "durationTicks": 320,
          "midi": 62,
          "name": "D4",
          "ticks": 22080,
          "time": 25.55553,
          "velocity": 0.889763779527559
        },
        {
          "duration": 0.09259250000000208,
          "durationTicks": 80,
          "midi": 61,
          "name": "C#4",
          "ticks": 22400,
          "time": 25.9259,
          "velocity": 0.6771653543307087
        },
        {
          "duration": 0.09259250000000208,
          "durationTicks": 80,
          "midi": 61,
          "name": "C#4",
          "ticks": 22480,
          "time": 26.0184925,
          "velocity": 0.6771653543307087
        },
        {
          "duration": 0.37036999999999765,
          "durationTicks": 320,
          "midi": 63,
          "name": "D#4",
          "ticks": 22560,
          "time": 26.111085000000003,
          "velocity": 0.889763779527559
        },
        {
          "duration": 0.1851850000000006,
          "durationTicks": 160,
          "midi": 61,
          "name": "C#4",
          "ticks": 22880,
          "time": 26.481455,
          "velocity": 0.6771653543307087
        },
        {
          "duration": 0.37036999999999765,
          "durationTicks": 320,
          "midi": 62,
          "name": "D4",
          "ticks": 23040,
          "time": 26.66664,
          "velocity": 0.889763779527559
        },
        {
          "duration": 0.1851850000000006,
          "durationTicks": 160,
          "midi": 61,
          "name": "C#4",
          "ticks": 23360,
          "time": 27.03701,
          "velocity": 0.6771653543307087
        },
        {
          "duration": 0.3703700000000012,
          "durationTicks": 320,
          "midi": 63,
          "name": "D#4",
          "ticks": 23520,
          "time": 27.222195,
          "velocity": 0.889763779527559
        },
        {
          "duration": 0.1851850000000006,
          "durationTicks": 160,
          "midi": 61,
          "name": "C#4",
          "ticks": 23840,
          "time": 27.592565,
          "velocity": 0.6771653543307087
        },
        {
          "duration": 0.37036999999999765,
          "durationTicks": 320,
          "midi": 62,
          "name": "D4",
          "ticks": 24000,
          "time": 27.77775,
          "velocity": 0.889763779527559
        },
        {
          "duration": 0.18518500000000415,
          "durationTicks": 160,
          "midi": 61,
          "name": "C#4",
          "ticks": 24320,
          "time": 28.14812,
          "velocity": 0.6771653543307087
        },
        {
          "duration": 0.37036999999999765,
          "durationTicks": 320,
          "midi": 63,
          "name": "D#4",
          "ticks": 24480,
          "time": 28.333305000000003,
          "velocity": 0.889763779527559
        },
        {
          "duration": 0.1851850000000006,
          "durationTicks": 160,
          "midi": 61,
          "name": "C#4",
          "ticks": 24800,
          "time": 28.703675,
          "velocity": 0.6771653543307087
        },
        {
          "duration": 0.37036999999999765,
          "durationTicks": 320,
          "midi": 62,
          "name": "D4",
          "ticks": 24960,
          "time": 28.88886,
          "velocity": 0.889763779527559
        },
        {
          "duration": 0.1851850000000006,
          "durationTicks": 160,
          "midi": 61,
          "name": "C#4",
          "ticks": 25280,
          "time": 29.25923,
          "velocity": 0.6771653543307087
        },
        {
          "duration": 0.3703700000000012,
          "durationTicks": 320,
          "midi": 63,
          "name": "D#4",
          "ticks": 25439,
          "time": 29.44325759375,
          "velocity": 0.889763779527559
        },
        {
          "duration": 0.1851850000000006,
          "durationTicks": 160,
          "midi": 61,
          "name": "C#4",
          "ticks": 25760,
          "time": 29.814785,
          "velocity": 0.6771653543307087
        },
        {
          "duration": 0.37036999999999765,
          "durationTicks": 320,
          "midi": 62,
          "name": "D4",
          "ticks": 25920,
          "time": 29.99997,
          "velocity": 0.889763779527559
        },
        {
          "duration": 0.09259250000000208,
          "durationTicks": 80,
          "midi": 61,
          "name": "C#4",
          "ticks": 26240,
          "time": 30.37034,
          "velocity": 0.6771653543307087
        },
        {
          "duration": 0.09259250000000208,
          "durationTicks": 80,
          "midi": 61,
          "name": "C#4",
          "ticks": 26320,
          "time": 30.4629325,
          "velocity": 0.6771653543307087
        },
        {
          "duration": 0.37036999999999765,
          "durationTicks": 320,
          "midi": 63,
          "name": "D#4",
          "ticks": 26400,
          "time": 30.555525000000003,
          "velocity": 0.889763779527559
        },
        {
          "duration": 0.1851850000000006,
          "durationTicks": 160,
          "midi": 61,
          "name": "C#4",
          "ticks": 26720,
          "time": 30.925895,
          "velocity": 0.6771653543307087
        },
        {
          "duration": 0.37036999999999765,
          "durationTicks": 320,
          "midi": 62,
          "name": "D4",
          "ticks": 26880,
          "time": 31.11108,
          "velocity": 0.889763779527559
        },
        {
          "duration": 0.1851850000000006,
          "durationTicks": 160,
          "midi": 61,
          "name": "C#4",
          "ticks": 27200,
          "time": 31.48145,
          "velocity": 0.6771653543307087
        },
        {
          "duration": 0.3703700000000012,
          "durationTicks": 320,
          "midi": 63,
          "name": "D#4",
          "ticks": 27360,
          "time": 31.666635,
          "velocity": 0.889763779527559
        },
        {
          "duration": 0.18518499999999705,
          "durationTicks": 160,
          "midi": 61,
          "name": "C#4",
          "ticks": 27680,
          "time": 32.037005,
          "velocity": 0.6771653543307087
        },
        {
          "duration": 0.3703700000000012,
          "durationTicks": 320,
          "midi": 62,
          "name": "D4",
          "ticks": 27840,
          "time": 32.22219,
          "velocity": 0.889763779527559
        },
        {
          "duration": 0.18518500000000415,
          "durationTicks": 160,
          "midi": 61,
          "name": "C#4",
          "ticks": 28160,
          "time": 32.59256,
          "velocity": 0.6771653543307087
        },
        {
          "duration": 0.3703699999999941,
          "durationTicks": 320,
          "midi": 63,
          "name": "D#4",
          "ticks": 28320,
          "time": 32.777745,
          "velocity": 0.889763779527559
        },
        {
          "duration": 0.18518500000000415,
          "durationTicks": 160,
          "midi": 61,
          "name": "C#4",
          "ticks": 28640,
          "time": 33.148115,
          "velocity": 0.6771653543307087
        },
        {
          "duration": 0.3703700000000012,
          "durationTicks": 320,
          "midi": 62,
          "name": "D4",
          "ticks": 28800,
          "time": 33.3333,
          "velocity": 0.889763779527559
        },
        {
          "duration": 0.18518499999999705,
          "durationTicks": 160,
          "midi": 61,
          "name": "C#4",
          "ticks": 29120,
          "time": 33.70367,
          "velocity": 0.6771653543307087
        },
        {
          "duration": 0.3703699999999941,
          "durationTicks": 320,
          "midi": 63,
          "name": "D#4",
          "ticks": 29279,
          "time": 33.887697593750005,
          "velocity": 0.889763779527559
        },
        {
          "duration": 0.18518500000000415,
          "durationTicks": 160,
          "midi": 61,
          "name": "C#4",
          "ticks": 29600,
          "time": 34.259225,
          "velocity": 0.6771653543307087
        },
        {
          "duration": 0.3703699999999941,
          "durationTicks": 320,
          "midi": 62,
          "name": "D4",
          "ticks": 29760,
          "time": 34.444410000000005,
          "velocity": 0.889763779527559
        },
        {
          "duration": 0.09259250000000208,
          "durationTicks": 80,
          "midi": 61,
          "name": "C#4",
          "ticks": 30080,
          "time": 34.81478,
          "velocity": 0.6771653543307087
        },
        {
          "duration": 0.09259250000000208,
          "durationTicks": 80,
          "midi": 61,
          "name": "C#4",
          "ticks": 30160,
          "time": 34.9073725,
          "velocity": 0.6771653543307087
        },
        {
          "duration": 0.3703699999999941,
          "durationTicks": 320,
          "midi": 63,
          "name": "D#4",
          "ticks": 30240,
          "time": 34.999965,
          "velocity": 0.889763779527559
        },
        {
          "duration": 0.18518500000000415,
          "durationTicks": 160,
          "midi": 61,
          "name": "C#4",
          "ticks": 30560,
          "time": 35.370335,
          "velocity": 0.6771653543307087
        }
      ]
    },
    {
      "channel": 0,
      "controlChanges": {
        "1": [
          {
            "number": 1,
            "ticks": 0,
            "time": 0,
            "value": 0
          }
        ],
        "7": [
          {
            "number": 7,
            "ticks": 0,
            "time": 0,
            "value": 1
          }
        ],
        "10": [
          {
            "number": 10,
            "ticks": 0,
            "time": 0,
            "value": 0.3464566929133858
          }
        ],
        "11": [
          {
            "number": 11,
            "ticks": 0,
            "time": 0,
            "value": 1
          }
        ]
      },
      "pitchBends": [],
      "instrument": {
        "family": "piano",
        "number": 0,
        "name": "acoustic grand piano"
      },
      "name": "Skin Percs L",
      "notes": [],
      "endOfTrackTicks": 30720
    },
    {
      "channel": 12,
      "controlChanges": {
        "6": [
          {
            "number": 6,
            "ticks": 0,
            "time": 0,
            "value": 0.015748031496062992
          }
        ],
        "100": [
          {
            "number": 100,
            "ticks": 0,
            "time": 0,
            "value": 0
          }
        ],
        "101": [
          {
            "number": 101,
            "ticks": 0,
            "time": 0,
            "value": 0
          }
        ]
      },
      "pitchBends": [],
      "instrument": {
        "family": "sound effects",
        "number": 123,
        "name": "bird tweet"
      },
      "name": "",
      "notes": [
        {
          "duration": 1.11111,
          "durationTicks": 960,
          "midi": 32,
          "name": "G#1",
          "ticks": 1,
          "time": 0.00115740625,
          "velocity": 0.44881889763779526
        },
        {
          "duration": 0.5555550000000001,
          "durationTicks": 480,
          "midi": 33,
          "name": "A1",
          "ticks": 320,
          "time": 0.37037,
          "velocity": 0.47244094488188976
        },
        {
          "duration": 0.5555549999999998,
          "durationTicks": 480,
          "midi": 33,
          "name": "A1",
          "ticks": 800,
          "time": 0.9259250000000001,
          "velocity": 0.2677165354330709
        },
        {
          "duration": 1.11111,
          "durationTicks": 960,
          "midi": 32,
          "name": "G#1",
          "ticks": 960,
          "time": 1.11111,
          "velocity": 0.6141732283464567
        },
        {
          "duration": 0.555555,
          "durationTicks": 480,
          "midi": 33,
          "name": "A1",
          "ticks": 1280,
          "time": 1.48148,
          "velocity": 0.4330708661417323
        },
        {
          "duration": 0.5555550000000005,
          "durationTicks": 480,
          "midi": 33,
          "name": "A1",
          "ticks": 1760,
          "time": 2.037035,
          "velocity": 0.29133858267716534
        },
        {
          "duration": 1.11111,
          "durationTicks": 960,
          "midi": 32,
          "name": "G#1",
          "ticks": 1920,
          "time": 2.22222,
          "velocity": 0.6220472440944882
        },
        {
          "duration": 0.555555,
          "durationTicks": 480,
          "midi": 33,
          "name": "A1",
          "ticks": 2240,
          "time": 2.5925900000000004,
          "velocity": 0.5748031496062992
        },
        {
          "duration": 0.555555,
          "durationTicks": 480,
          "midi": 33,
          "name": "A1",
          "ticks": 2720,
          "time": 3.1481450000000004,
          "velocity": 0.47244094488188976
        },
        {
          "duration": 1.11111,
          "durationTicks": 960,
          "midi": 32,
          "name": "G#1",
          "ticks": 2880,
          "time": 3.33333,
          "velocity": 0.5511811023622047
        },
        {
          "duration": 0.555555,
          "durationTicks": 480,
          "midi": 33,
          "name": "A1",
          "ticks": 3200,
          "time": 3.7037000000000004,
          "velocity": 0.5354330708661418
        },
        {
          "duration": 0.5555549999999991,
          "durationTicks": 480,
          "midi": 33,
          "name": "A1",
          "ticks": 3680,
          "time": 4.2592550000000005,
          "velocity": 0.5039370078740157
        },
        {
          "duration": 1.11111,
          "durationTicks": 960,
          "midi": 32,
          "name": "G#1",
          "ticks": 3840,
          "time": 4.44444,
          "velocity": 0.44881889763779526
        },
        {
          "duration": 0.555555,
          "durationTicks": 480,
          "midi": 33,
          "name": "A1",
          "ticks": 4160,
          "time": 4.81481,
          "velocity": 0.47244094488188976
        },
        {
          "duration": 0.555555,
          "durationTicks": 480,
          "midi": 33,
          "name": "A1",
          "ticks": 4640,
          "time": 5.370365,
          "velocity": 0.2677165354330709
        },
        {
          "duration": 1.11111,
          "durationTicks": 960,
          "midi": 32,
          "name": "G#1",
          "ticks": 4800,
          "time": 5.55555,
          "velocity": 0.6141732283464567
        },
        {
          "duration": 0.555555,
          "durationTicks": 480,
          "midi": 33,
          "name": "A1",
          "ticks": 5120,
          "time": 5.92592,
          "velocity": 0.4330708661417323
        },
        {
          "duration": 0.555555,
          "durationTicks": 480,
          "midi": 33,
          "name": "A1",
          "ticks": 5600,
          "time": 6.481475,
          "velocity": 0.29133858267716534
        },
        {
          "duration": 1.11111,
          "durationTicks": 960,
          "midi": 32,
          "name": "G#1",
          "ticks": 5760,
          "time": 6.66666,
          "velocity": 0.6771653543307087
        },
        {
          "duration": 0.555555,
          "durationTicks": 480,
          "midi": 33,
          "name": "A1",
          "ticks": 6080,
          "time": 7.03703,
          "velocity": 0.3464566929133858
        },
        {
          "duration": 0.555555,
          "durationTicks": 480,
          "midi": 33,
          "name": "A1",
          "ticks": 6560,
          "time": 7.592585,
          "velocity": 0.5669291338582677
        },
        {
          "duration": 0.555555,
          "durationTicks": 480,
          "midi": 33,
          "name": "A1",
          "ticks": 7040,
          "time": 8.14814,
          "velocity": 0.4330708661417323
        },
        {
          "duration": 0.5555550000000018,
          "durationTicks": 480,
          "midi": 33,
          "name": "A1",
          "ticks": 7520,
          "time": 8.703695,
          "velocity": 0.10236220472440945
        },
        {
          "duration": 1.11111,
          "durationTicks": 960,
          "midi": 32,
          "name": "G#1",
          "ticks": 7680,
          "time": 8.88888,
          "velocity": 0.44881889763779526
        },
        {
          "duration": 0.555555,
          "durationTicks": 480,
          "midi": 33,
          "name": "A1",
          "ticks": 8000,
          "time": 9.259250000000002,
          "velocity": 0.47244094488188976
        },
        {
          "duration": 0.555555,
          "durationTicks": 480,
          "midi": 33,
          "name": "A1",
          "ticks": 8480,
          "time": 9.814805000000002,
          "velocity": 0.2677165354330709
        },
        {
          "duration": 1.11111,
          "durationTicks": 960,
          "midi": 32,
          "name": "G#1",
          "ticks": 8640,
          "time": 9.99999,
          "velocity": 0.6141732283464567
        },
        {
          "duration": 0.555555,
          "durationTicks": 480,
          "midi": 33,
          "name": "A1",
          "ticks": 8960,
          "time": 10.370360000000002,
          "velocity": 0.4330708661417323
        },
        {
          "duration": 0.555555,
          "durationTicks": 480,
          "midi": 33,
          "name": "A1",
          "ticks": 9440,
          "time": 10.925915000000002,
          "velocity": 0.29133858267716534
        },
        {
          "duration": 1.11111,
          "durationTicks": 960,
          "midi": 32,
          "name": "G#1",
          "ticks": 9600,
          "time": 11.1111,
          "velocity": 0.6220472440944882
        },
        {
          "duration": 0.555555,
          "durationTicks": 480,
          "midi": 33,
          "name": "A1",
          "ticks": 9920,
          "time": 11.481470000000002,
          "velocity": 0.5748031496062992
        },
        {
          "duration": 0.555555,
          "durationTicks": 480,
          "midi": 33,
          "name": "A1",
          "ticks": 10400,
          "time": 12.037025000000002,
          "velocity": 0.47244094488188976
        },
        {
          "duration": 1.11111,
          "durationTicks": 960,
          "midi": 32,
          "name": "G#1",
          "ticks": 10560,
          "time": 12.22221,
          "velocity": 0.5511811023622047
        },
        {
          "duration": 0.555555,
          "durationTicks": 480,
          "midi": 33,
          "name": "A1",
          "ticks": 10880,
          "time": 12.592580000000002,
          "velocity": 0.5354330708661418
        },
        {
          "duration": 0.555555,
          "durationTicks": 480,
          "midi": 33,
          "name": "A1",
          "ticks": 11360,
          "time": 13.148135000000002,
          "velocity": 0.5039370078740157
        },
        {
          "duration": 1.11111,
          "durationTicks": 960,
          "midi": 32,
          "name": "G#1",
          "ticks": 11520,
          "time": 13.33332,
          "velocity": 0.44881889763779526
        },
        {
          "duration": 0.555555,
          "durationTicks": 480,
          "midi": 33,
          "name": "A1",
          "ticks": 11840,
          "time": 13.703690000000002,
          "velocity": 0.47244094488188976
        },
        {
          "duration": 0.555555,
          "durationTicks": 480,
          "midi": 33,
          "name": "A1",
          "ticks": 12320,
          "time": 14.259245000000002,
          "velocity": 0.2677165354330709
        },
        {
          "duration": 1.11111,
          "durationTicks": 960,
          "midi": 32,
          "name": "G#1",
          "ticks": 12480,
          "time": 14.44443,
          "velocity": 0.6141732283464567
        },
        {
          "duration": 0.555555,
          "durationTicks": 480,
          "midi": 33,
          "name": "A1",
          "ticks": 12800,
          "time": 14.814800000000002,
          "velocity": 0.4330708661417323
        },
        {
          "duration": 0.555555,
          "durationTicks": 480,
          "midi": 33,
          "name": "A1",
          "ticks": 13280,
          "time": 15.370355000000002,
          "velocity": 0.29133858267716534
        },
        {
          "duration": 1.11111,
          "durationTicks": 960,
          "midi": 32,
          "name": "G#1",
          "ticks": 13440,
          "time": 15.55554,
          "velocity": 0.6220472440944882
        },
        {
          "duration": 0.5555549999999982,
          "durationTicks": 480,
          "midi": 33,
          "name": "A1",
          "ticks": 13760,
          "time": 15.925910000000002,
          "velocity": 0.5748031496062992
        },
        {
          "duration": 0.5555550000000018,
          "durationTicks": 480,
          "midi": 33,
          "name": "A1",
          "ticks": 14240,
          "time": 16.481465,
          "velocity": 0.47244094488188976
        },
        {
          "duration": 1.11111,
          "durationTicks": 960,
          "midi": 32,
          "name": "G#1",
          "ticks": 14400,
          "time": 16.66665,
          "velocity": 0.5511811023622047
        },
        {
          "duration": 0.5555549999999982,
          "durationTicks": 480,
          "midi": 33,
          "name": "A1",
          "ticks": 14720,
          "time": 17.037020000000002,
          "velocity": 0.5354330708661418
        },
        {
          "duration": 0.5555549999999982,
          "durationTicks": 480,
          "midi": 33,
          "name": "A1",
          "ticks": 15200,
          "time": 17.592575,
          "velocity": 0.5039370078740157
        },
        {
          "duration": 1.11111,
          "durationTicks": 960,
          "midi": 32,
          "name": "G#1",
          "ticks": 15360,
          "time": 17.77776,
          "velocity": 0.44881889763779526
        },
        {
          "duration": 0.5555550000000018,
          "durationTicks": 480,
          "midi": 33,
          "name": "A1",
          "ticks": 15680,
          "time": 18.14813,
          "velocity": 0.47244094488188976
        },
        {
          "duration": 0.5555549999999982,
          "durationTicks": 480,
          "midi": 33,
          "name": "A1",
          "ticks": 16160,
          "time": 18.703685,
          "velocity": 0.2677165354330709
        },
        {
          "duration": 1.11111,
          "durationTicks": 960,
          "midi": 32,
          "name": "G#1",
          "ticks": 16320,
          "time": 18.88887,
          "velocity": 0.6141732283464567
        },
        {
          "duration": 0.5555550000000018,
          "durationTicks": 480,
          "midi": 33,
          "name": "A1",
          "ticks": 16640,
          "time": 19.25924,
          "velocity": 0.4330708661417323
        },
        {
          "duration": 0.5555549999999982,
          "durationTicks": 480,
          "midi": 33,
          "name": "A1",
          "ticks": 17120,
          "time": 19.814795,
          "velocity": 0.29133858267716534
        },
        {
          "duration": 1.11111,
          "durationTicks": 960,
          "midi": 32,
          "name": "G#1",
          "ticks": 17280,
          "time": 19.99998,
          "velocity": 0.6220472440944882
        },
        {
          "duration": 0.5555550000000018,
          "durationTicks": 480,
          "midi": 33,
          "name": "A1",
          "ticks": 17600,
          "time": 20.37035,
          "velocity": 0.5748031496062992
        },
        {
          "duration": 0.5555549999999982,
          "durationTicks": 480,
          "midi": 33,
          "name": "A1",
          "ticks": 18080,
          "time": 20.925905,
          "velocity": 0.47244094488188976
        },
        {
          "duration": 1.11111,
          "durationTicks": 960,
          "midi": 32,
          "name": "G#1",
          "ticks": 18240,
          "time": 21.11109,
          "velocity": 0.5511811023622047
        },
        {
          "duration": 0.5555550000000018,
          "durationTicks": 480,
          "midi": 33,
          "name": "A1",
          "ticks": 18560,
          "time": 21.48146,
          "velocity": 0.5354330708661418
        },
        {
          "duration": 0.5555549999999982,
          "durationTicks": 480,
          "midi": 33,
          "name": "A1",
          "ticks": 19040,
          "time": 22.037015,
          "velocity": 0.5039370078740157
        },
        {
          "duration": 1.11111,
          "durationTicks": 960,
          "midi": 32,
          "name": "G#1",
          "ticks": 19200,
          "time": 22.2222,
          "velocity": 0.44881889763779526
        },
        {
          "duration": 0.5555550000000018,
          "durationTicks": 480,
          "midi": 33,
          "name": "A1",
          "ticks": 19520,
          "time": 22.59257,
          "velocity": 0.47244094488188976
        },
        {
          "duration": 0.5555549999999982,
          "durationTicks": 480,
          "midi": 33,
          "name": "A1",
          "ticks": 20000,
          "time": 23.148125,
          "velocity": 0.2677165354330709
        },
        {
          "duration": 1.11111,
          "durationTicks": 960,
          "midi": 32,
          "name": "G#1",
          "ticks": 20160,
          "time": 23.33331,
          "velocity": 0.6141732283464567
        },
        {
          "duration": 0.5555550000000018,
          "durationTicks": 480,
          "midi": 33,
          "name": "A1",
          "ticks": 20480,
          "time": 23.70368,
          "velocity": 0.4330708661417323
        },
        {
          "duration": 0.5555549999999982,
          "durationTicks": 480,
          "midi": 33,
          "name": "A1",
          "ticks": 20960,
          "time": 24.259235,
          "velocity": 0.29133858267716534
        },
        {
          "duration": 1.11111,
          "durationTicks": 960,
          "midi": 32,
          "name": "G#1",
          "ticks": 21120,
          "time": 24.44442,
          "velocity": 0.6771653543307087
        },
        {
          "duration": 0.5555550000000018,
          "durationTicks": 480,
          "midi": 33,
          "name": "A1",
          "ticks": 21440,
          "time": 24.81479,
          "velocity": 0.3464566929133858
        },
        {
          "duration": 0.5555549999999982,
          "durationTicks": 480,
          "midi": 33,
          "name": "A1",
          "ticks": 21920,
          "time": 25.370345,
          "velocity": 0.5669291338582677
        },
        {
          "duration": 0.5555550000000018,
          "durationTicks": 480,
          "midi": 33,
          "name": "A1",
          "ticks": 22400,
          "time": 25.9259,
          "velocity": 0.4330708661417323
        },
        {
          "duration": 0.5555549999999982,
          "durationTicks": 480,
          "midi": 33,
          "name": "A1",
          "ticks": 22880,
          "time": 26.481455,
          "velocity": 0.10236220472440945
        },
        {
          "duration": 1.11111,
          "durationTicks": 960,
          "midi": 32,
          "name": "G#1",
          "ticks": 23040,
          "time": 26.66664,
          "velocity": 0.44881889763779526
        },
        {
          "duration": 0.5555550000000018,
          "durationTicks": 480,
          "midi": 33,
          "name": "A1",
          "ticks": 23360,
          "time": 27.03701,
          "velocity": 0.47244094488188976
        },
        {
          "duration": 0.5555549999999982,
          "durationTicks": 480,
          "midi": 33,
          "name": "A1",
          "ticks": 23840,
          "time": 27.592565,
          "velocity": 0.2677165354330709
        },
        {
          "duration": 1.11111,
          "durationTicks": 960,
          "midi": 32,
          "name": "G#1",
          "ticks": 24000,
          "time": 27.77775,
          "velocity": 0.6141732283464567
        },
        {
          "duration": 0.5555550000000018,
          "durationTicks": 480,
          "midi": 33,
          "name": "A1",
          "ticks": 24320,
          "time": 28.14812,
          "velocity": 0.4330708661417323
        },
        {
          "duration": 0.5555549999999982,
          "durationTicks": 480,
          "midi": 33,
          "name": "A1",
          "ticks": 24800,
          "time": 28.703675,
          "velocity": 0.29133858267716534
        },
        {
          "duration": 1.11111,
          "durationTicks": 960,
          "midi": 32,
          "name": "G#1",
          "ticks": 24960,
          "time": 28.88886,
          "velocity": 0.6220472440944882
        },
        {
          "duration": 0.5555550000000018,
          "durationTicks": 480,
          "midi": 33,
          "name": "A1",
          "ticks": 25280,
          "time": 29.25923,
          "velocity": 0.5748031496062992
        },
        {
          "duration": 0.5555549999999982,
          "durationTicks": 480,
          "midi": 33,
          "name": "A1",
          "ticks": 25760,
          "time": 29.814785,
          "velocity": 0.47244094488188976
        },
        {
          "duration": 1.11111,
          "durationTicks": 960,
          "midi": 32,
          "name": "G#1",
          "ticks": 25920,
          "time": 29.99997,
          "velocity": 0.5511811023622047
        },
        {
          "duration": 0.5555550000000018,
          "durationTicks": 480,
          "midi": 33,
          "name": "A1",
          "ticks": 26240,
          "time": 30.37034,
          "velocity": 0.5354330708661418
        },
        {
          "duration": 0.5555549999999982,
          "durationTicks": 480,
          "midi": 33,
          "name": "A1",
          "ticks": 26720,
          "time": 30.925895,
          "velocity": 0.5039370078740157
        },
        {
          "duration": 1.1111099999999965,
          "durationTicks": 960,
          "midi": 32,
          "name": "G#1",
          "ticks": 26880,
          "time": 31.11108,
          "velocity": 0.44881889763779526
        },
        {
          "duration": 0.5555550000000018,
          "durationTicks": 480,
          "midi": 33,
          "name": "A1",
          "ticks": 27200,
          "time": 31.48145,
          "velocity": 0.47244094488188976
        },
        {
          "duration": 0.5555549999999982,
          "durationTicks": 480,
          "midi": 33,
          "name": "A1",
          "ticks": 27680,
          "time": 32.037005,
          "velocity": 0.2677165354330709
        },
        {
          "duration": 1.1111100000000036,
          "durationTicks": 960,
          "midi": 32,
          "name": "G#1",
          "ticks": 27840,
          "time": 32.22219,
          "velocity": 0.6141732283464567
        },
        {
          "duration": 0.5555549999999982,
          "durationTicks": 480,
          "midi": 33,
          "name": "A1",
          "ticks": 28160,
          "time": 32.59256,
          "velocity": 0.4330708661417323
        },
        {
          "duration": 0.5555550000000054,
          "durationTicks": 480,
          "midi": 33,
          "name": "A1",
          "ticks": 28640,
          "time": 33.148115,
          "velocity": 0.29133858267716534
        },
        {
          "duration": 1.1111100000000036,
          "durationTicks": 960,
          "midi": 32,
          "name": "G#1",
          "ticks": 28800,
          "time": 33.3333,
          "velocity": 0.6220472440944882
        },
        {
          "duration": 0.5555549999999982,
          "durationTicks": 480,
          "midi": 33,
          "name": "A1",
          "ticks": 29120,
          "time": 33.70367,
          "velocity": 0.5748031496062992
        },
        {
          "duration": 0.5555549999999982,
          "durationTicks": 480,
          "midi": 33,
          "name": "A1",
          "ticks": 29600,
          "time": 34.259225,
          "velocity": 0.47244094488188976
        },
        {
          "duration": 0.46296249999999617,
          "durationTicks": 400,
          "midi": 32,
          "name": "G#1",
          "ticks": 29760,
          "time": 34.444410000000005,
          "velocity": 0.5511811023622047
        },
        {
          "duration": 0.5555549999999982,
          "durationTicks": 480,
          "midi": 33,
          "name": "A1",
          "ticks": 30080,
          "time": 34.81478,
          "velocity": 0.5354330708661418
        },
        {
          "duration": 0.6481475000000003,
          "durationTicks": 560,
          "midi": 32,
          "name": "G#1",
          "ticks": 30160,
          "time": 34.9073725,
          "velocity": 0.5354330708661418
        },
        {
          "duration": 0.18518500000000415,
          "durationTicks": 160,
          "midi": 33,
          "name": "A1",
          "ticks": 30560,
          "time": 35.370335,
          "velocity": 0.5039370078740157
        }
      ]
    },
    {
      "channel": 0,
      "controlChanges": {
        "1": [
          {
            "number": 1,
            "ticks": 0,
            "time": 0,
            "value": 0
          }
        ],
        "7": [
          {
            "number": 7,
            "ticks": 0,
            "time": 0,
            "value": 1
          }
        ],
        "10": [
          {
            "number": 10,
            "ticks": 0,
            "time": 0,
            "value": 0.6614173228346457
          }
        ],
        "11": [
          {
            "number": 11,
            "ticks": 0,
            "time": 0,
            "value": 1
          }
        ]
      },
      "pitchBends": [],
      "instrument": {
        "family": "piano",
        "number": 0,
        "name": "acoustic grand piano"
      },
      "name": "Skin Percs R",
      "notes": [],
      "endOfTrackTicks": 30720
    },
    {
      "channel": 13,
      "controlChanges": {
        "6": [
          {
            "number": 6,
            "ticks": 0,
            "time": 0,
            "value": 0.015748031496062992
          }
        ],
        "100": [
          {
            "number": 100,
            "ticks": 0,
            "time": 0,
            "value": 0
          }
        ],
        "101": [
          {
            "number": 101,
            "ticks": 0,
            "time": 0,
            "value": 0
          }
        ]
      },
      "pitchBends": [],
      "instrument": {
        "family": "sound effects",
        "number": 123,
        "name": "bird tweet"
      },
      "name": "",
      "notes": [
        {
          "duration": 1.11111,
          "durationTicks": 960,
          "midi": 30,
          "name": "F#1",
          "ticks": 480,
          "time": 0.555555,
          "velocity": 0.4881889763779528
        },
        {
          "duration": 1.11111,
          "durationTicks": 960,
          "midi": 30,
          "name": "F#1",
          "ticks": 1440,
          "time": 1.666665,
          "velocity": 0.4330708661417323
        },
        {
          "duration": 1.11111,
          "durationTicks": 960,
          "midi": 30,
          "name": "F#1",
          "ticks": 2400,
          "time": 2.777775,
          "velocity": 0.47244094488188976
        },
        {
          "duration": 1.11111,
          "durationTicks": 960,
          "midi": 30,
          "name": "F#1",
          "ticks": 3360,
          "time": 3.888885,
          "velocity": 0.41732283464566927
        },
        {
          "duration": 1.11111,
          "durationTicks": 960,
          "midi": 30,
          "name": "F#1",
          "ticks": 4320,
          "time": 4.999995,
          "velocity": 0.4881889763779528
        },
        {
          "duration": 1.11111,
          "durationTicks": 960,
          "midi": 30,
          "name": "F#1",
          "ticks": 5280,
          "time": 6.111105,
          "velocity": 0.4330708661417323
        },
        {
          "duration": 0.555555,
          "durationTicks": 480,
          "midi": 30,
          "name": "F#1",
          "ticks": 6240,
          "time": 7.222215,
          "velocity": 0.4881889763779528
        },
        {
          "duration": 0.555555,
          "durationTicks": 480,
          "midi": 30,
          "name": "F#1",
          "ticks": 6720,
          "time": 7.77777,
          "velocity": 0.5039370078740157
        },
        {
          "duration": 1.11111,
          "durationTicks": 960,
          "midi": 30,
          "name": "F#1",
          "ticks": 7200,
          "time": 8.333325,
          "velocity": 0.5354330708661418
        },
        {
          "duration": 1.11111,
          "durationTicks": 960,
          "midi": 30,
          "name": "F#1",
          "ticks": 8160,
          "time": 9.444435,
          "velocity": 0.4881889763779528
        },
        {
          "duration": 1.11111,
          "durationTicks": 960,
          "midi": 30,
          "name": "F#1",
          "ticks": 9120,
          "time": 10.555545,
          "velocity": 0.4330708661417323
        },
        {
          "duration": 1.11111,
          "durationTicks": 960,
          "midi": 30,
          "name": "F#1",
          "ticks": 10080,
          "time": 11.666655,
          "velocity": 0.47244094488188976
        },
        {
          "duration": 1.11111,
          "durationTicks": 960,
          "midi": 30,
          "name": "F#1",
          "ticks": 11040,
          "time": 12.777765,
          "velocity": 0.41732283464566927
        },
        {
          "duration": 1.11111,
          "durationTicks": 960,
          "midi": 30,
          "name": "F#1",
          "ticks": 12000,
          "time": 13.888875,
          "velocity": 0.4881889763779528
        },
        {
          "duration": 1.1111099999999983,
          "durationTicks": 960,
          "midi": 30,
          "name": "F#1",
          "ticks": 12960,
          "time": 14.999985,
          "velocity": 0.4330708661417323
        },
        {
          "duration": 1.1111100000000036,
          "durationTicks": 960,
          "midi": 30,
          "name": "F#1",
          "ticks": 13920,
          "time": 16.111095,
          "velocity": 0.47244094488188976
        },
        {
          "duration": 1.1111099999999965,
          "durationTicks": 960,
          "midi": 30,
          "name": "F#1",
          "ticks": 14880,
          "time": 17.222205000000002,
          "velocity": 0.41732283464566927
        },
        {
          "duration": 1.1111100000000036,
          "durationTicks": 960,
          "midi": 30,
          "name": "F#1",
          "ticks": 15840,
          "time": 18.333315,
          "velocity": 0.4881889763779528
        },
        {
          "duration": 1.1111099999999965,
          "durationTicks": 960,
          "midi": 30,
          "name": "F#1",
          "ticks": 16800,
          "time": 19.444425000000003,
          "velocity": 0.4330708661417323
        },
        {
          "duration": 1.1111100000000036,
          "durationTicks": 960,
          "midi": 30,
          "name": "F#1",
          "ticks": 17760,
          "time": 20.555535,
          "velocity": 0.47244094488188976
        },
        {
          "duration": 1.1111099999999965,
          "durationTicks": 960,
          "midi": 30,
          "name": "F#1",
          "ticks": 18720,
          "time": 21.666645000000003,
          "velocity": 0.41732283464566927
        },
        {
          "duration": 1.1111100000000036,
          "durationTicks": 960,
          "midi": 30,
          "name": "F#1",
          "ticks": 19680,
          "time": 22.777755,
          "velocity": 0.4881889763779528
        },
        {
          "duration": 1.1111099999999965,
          "durationTicks": 960,
          "midi": 30,
          "name": "F#1",
          "ticks": 20640,
          "time": 23.888865000000003,
          "velocity": 0.4330708661417323
        },
        {
          "duration": 0.5555550000000018,
          "durationTicks": 480,
          "midi": 30,
          "name": "F#1",
          "ticks": 21600,
          "time": 24.999975,
          "velocity": 0.4881889763779528
        },
        {
          "duration": 0.5555550000000018,
          "durationTicks": 480,
          "midi": 30,
          "name": "F#1",
          "ticks": 22080,
          "time": 25.55553,
          "velocity": 0.5039370078740157
        },
        {
          "duration": 1.1111099999999965,
          "durationTicks": 960,
          "midi": 30,
          "name": "F#1",
          "ticks": 22560,
          "time": 26.111085000000003,
          "velocity": 0.5354330708661418
        },
        {
          "duration": 1.1111100000000036,
          "durationTicks": 960,
          "midi": 30,
          "name": "F#1",
          "ticks": 23520,
          "time": 27.222195,
          "velocity": 0.4881889763779528
        },
        {
          "duration": 1.1111099999999965,
          "durationTicks": 960,
          "midi": 30,
          "name": "F#1",
          "ticks": 24480,
          "time": 28.333305000000003,
          "velocity": 0.4330708661417323
        },
        {
          "duration": 1.1111100000000036,
          "durationTicks": 960,
          "midi": 30,
          "name": "F#1",
          "ticks": 25440,
          "time": 29.444415,
          "velocity": 0.47244094488188976
        },
        {
          "duration": 1.1111099999999965,
          "durationTicks": 960,
          "midi": 30,
          "name": "F#1",
          "ticks": 26400,
          "time": 30.555525000000003,
          "velocity": 0.41732283464566927
        },
        {
          "duration": 1.1111100000000036,
          "durationTicks": 960,
          "midi": 30,
          "name": "F#1",
          "ticks": 27360,
          "time": 31.666635,
          "velocity": 0.4881889763779528
        },
        {
          "duration": 1.1111099999999965,
          "durationTicks": 960,
          "midi": 30,
          "name": "F#1",
          "ticks": 28320,
          "time": 32.777745,
          "velocity": 0.4330708661417323
        },
        {
          "duration": 1.1111100000000036,
          "durationTicks": 960,
          "midi": 30,
          "name": "F#1",
          "ticks": 29280,
          "time": 33.888855,
          "velocity": 0.47244094488188976
        },
        {
          "duration": 0.5555549999999982,
          "durationTicks": 480,
          "midi": 30,
          "name": "F#1",
          "ticks": 30240,
          "time": 34.999965,
          "velocity": 0.41732283464566927
        }
      ]
    }
  ]
}